<svg xmlns="http://www.w3.org/2000/svg" xmlns:xlink="http://www.w3.org/1999/xlink" id="Warstwa_1" x="0px" y="0px" viewBox="0 0 365.7 202.7" style="enable-background:new 0 0 365.7 202.7;" xml:space="preserve"><style type="text/css">	.st0{fill:none;}	.st1{fill:none;stroke:#FFFFFF;stroke-miterlimit:10;}	.st2{fill:#FFFFFF;}	.st3{fill:#F5FDFD;}</style><g id="Bounding_Box">	<rect x="0.6" y="0" class="st0" width="365.7" height="202.7"></rect></g><g id="Logo_Siegel_Kombi">	<circle class="st1" cx="264" cy="101.3" r="68"></circle>	<polygon class="st2" points="61.7,79.1 60,79.1 60,75 66.3,75 66.3,79.1 64.6,79.1 64.6,79.9 69.8,79.9 69.8,79.1 68.1,79.1   68.1,70.1 69.8,70.1 69.8,69.3 64.6,69.3 64.6,70.1 66.3,70.1 66.3,74.1 60,74.1 60,70.1 61.7,70.1 61.7,69.3 56.5,69.3 56.5,70.1   58.3,70.1 58.3,79.1 56.5,79.1 56.5,79.9 61.7,79.9  "></polygon>	<path class="st2" d="M84.4,76v-5.8h1.7v-0.9h-4.6v0.9h1.7V76c0.1,1.7-1.1,3.1-2.8,3.2c-0.1,0-0.1,0-0.2,0c-1.7,0-2.8-1.3-2.8-3.2  v-5.8h1.8v-0.9h-5.2v0.9h1.7v6.3c0,2.2,1.8,3.8,4.3,3.8c2.3,0.2,4.2-1.5,4.4-3.8C84.4,76.3,84.4,76.2,84.4,76z"></path>	<polygon class="st2" points="92.8,71.8 96.6,80.1 100.8,71.4 100.8,79.1 99.1,79.1 99.1,79.9 104.3,79.9 104.3,79.1 102.6,79.1   102.6,70.2 104.3,70.2 104.3,69.3 100.7,69.3 97,77.1 93.3,69.3 89.9,69.3 89.9,70.2 91.6,70.2 91.6,79.1 89.9,79.1 89.9,79.9   94.5,79.9 94.5,79.1 92.8,79.1  "></polygon>	<path class="st2" d="M117.7,77.1c0-1.7-1.3-2.8-3.5-2.8c1.7,0,2.9-1,2.9-2.4c0-1.6-1.2-2.7-3.2-2.7h-5.6v0.9h1.7v9h-1.7V80h6  C116.4,79.9,117.7,78.9,117.7,77.1z M111.8,70.2h1.6c0.9-0.1,1.6,0.5,1.7,1.4c0,0.1,0,0.3,0,0.4c0.1,1-0.6,1.9-1.6,1.9  c-0.1,0-0.2,0-0.3,0h-1.5V70.2z M111.8,79v-4.1h1.7c1.5,0,2.3,0.7,2.3,2.2s-0.8,2-2.3,2L111.8,79z"></path>	<path class="st2" d="M126.9,80.2c3.1,0.1,5.7-2.4,5.7-5.5s-2.4-5.7-5.5-5.7c-3.1-0.1-5.7,2.4-5.7,5.5c0,0,0,0.1,0,0.1  C121.4,77.6,123.8,80.1,126.9,80.2z M126.9,70c1.9,0,3.5,2.1,3.5,4.6s-1.5,4.7-3.5,4.7c-2,0-3.5-2.1-3.5-4.7S124.9,70,126.9,70  L126.9,70z"></path>	<polygon class="st2" points="144.6,77.6 143.8,77.6 143.8,79 139.9,79 139.9,70.2 141.6,70.2 141.6,69.3 136.4,69.3 136.4,70.2   138.1,70.2 138.1,79.1 136.4,79.1 136.4,79.9 144.6,79.9  "></polygon>	<path class="st2" d="M158.8,74.6c0-3-2.5-5.4-5.5-5.3c0,0-0.1,0-0.1,0h-5.5v0.9h1.7v9h-1.7V80h5.5c2.9,0.1,5.4-2.1,5.6-5.1  C158.8,74.8,158.8,74.7,158.8,74.6z M151.2,79v-8.8h1.8c2.1,0,3.8,1.9,3.8,4.4S155.2,79,153,79H151.2z"></path>	<polygon class="st2" points="162.2,70.2 165.6,70.2 165.6,79.1 163.6,79.1 163.6,79.9 169.3,79.9 169.3,79.1 167.3,79.1   167.3,70.2 170.7,70.2 170.7,71.5 171.5,71.5 171.5,68.8 170.7,68.8 170.7,69.3 162.2,69.3 162.2,68.8 161.4,68.8 161.4,71.5   162.2,71.5  "></polygon>	<rect x="173.4" y="74.5" class="st2" width="4" height="1.4"></rect>	<path class="st2" d="M49.3,93.5H51v5.8c0.1,1.7-1.1,3.1-2.8,3.2c-0.1,0-0.1,0-0.2,0c-1.7,0-2.8-1.3-2.8-3.2v-5.8H47v-0.9h-5.2v0.9  h1.8v6.3c0,2.2,1.8,3.8,4.3,3.8c2.3,0.2,4.2-1.5,4.4-3.8c0-0.1,0-0.3,0-0.4v-5.8h1.7v-0.9h-4.6V93.5z"></path>	<polygon class="st2" points="69.6,92.6 65,92.6 65,93.5 66.7,93.5 66.7,100.1 60.2,92.6 57.3,92.6 57.3,93.5 58.9,93.5 59.3,94.1   59.3,102.4 57.6,102.4 57.6,103.3 62.2,103.3 62.2,102.4 60.5,102.4 60.5,95.6 67.2,103.5 67.9,103.5 67.9,93.5 69.6,93.5  "></polygon>	<polygon class="st2" points="73.3,93.5 75.1,93.5 75.1,102.4 73.3,102.4 73.3,103.3 78.6,103.3 78.6,102.4 76.8,102.4 76.8,93.5   78.6,93.5 78.6,92.6 73.3,92.6  "></polygon>	<polygon class="st2" points="86.5,92.6 82,92.6 82,93.5 83.1,93.5 87.3,103.6 87.8,103.6 92,93.5 92.9,93.5 92.9,92.6 89.6,92.6   89.6,93.5 90.9,93.5 88,100.7 85,93.5 86.5,93.5  "></polygon>	<polygon class="st2" points="103.7,101.1 102.8,101.1 102.8,102.3 98.9,102.3 98.9,98.3 101.8,98.3 101.8,99.5 102.7,99.5   102.7,96.3 101.8,96.3 101.8,97.4 98.9,97.4 98.9,93.5 102.7,93.5 102.7,94.7 103.5,94.7 103.5,92.2 102.7,92.2 102.7,92.6   95.4,92.6 95.4,93.5 97.1,93.5 97.1,102.4 95.4,102.4 95.4,103.3 103.7,103.3  "></polygon>	<path class="st2" d="M118.5,103.3v-0.8h-0.7c-0.6,0-1.1-0.4-1.3-0.9l-2.1-3.1c1.5-0.2,2.6-1.5,2.5-3c0-1.9-1.2-2.9-3.4-2.9H108v0.9  h1.7v8.9H108v0.8h5.2v-0.8h-1.7v-3.8h1.1l2.5,3.7c0.6,0.9,0.8,1,1.8,1L118.5,103.3z M111.4,97.7v-4.1h1.6c1.2,0,1.8,0.7,1.8,2  c0.1,1-0.6,2-1.6,2.1c-0.1,0-0.1,0-0.2,0L111.4,97.7z"></path>	<path class="st2" d="M126.4,97.2l-1.6-1c-0.8-0.5-1-0.8-1-1.4c0-0.9,0.7-1.6,1.6-1.6c0.1,0,0.1,0,0.2,0c0.7,0,1.4,0.2,1.9,0.6V95  h0.9v-2.7h-0.9v0.6c-0.6-0.4-1.4-0.5-2.1-0.5c-1.7-0.1-3.2,1.2-3.3,3c0,0,0,0,0,0c0,1.4,0.7,2.2,2.7,3.2s2.5,1.6,2.5,2.4  s-0.8,1.6-2,1.6c-0.8,0-1.7-0.3-2.3-0.8v-1.2h-0.9v2.9h0.9v-0.6c0.8,0.5,1.7,0.7,2.6,0.8c1.7,0.1,3.2-1.2,3.3-2.9c0,0,0-0.1,0-0.1  C128.9,99,128.3,98.3,126.4,97.2z"></path>	<polygon class="st2" points="138.1,102.4 136.4,102.4 136.4,93.5 138.1,93.5 138.1,92.6 132.9,92.6 132.9,93.5 134.6,93.5   134.6,102.4 132.9,102.4 132.9,103.3 138.1,103.3  "></polygon>	<polygon class="st2" points="150.4,92.6 141.9,92.6 141.9,92.2 141.1,92.2 141.1,94.8 141.9,94.8 141.9,93.5 145.3,93.5   145.3,102.4 143.3,102.4 143.3,103.3 149,103.3 149,102.4 147,102.4 147,93.5 150.4,93.5 150.4,94.8 151.3,94.8 151.3,92.2   150.4,92.2  "></polygon>	<path class="st2" d="M156.3,88.5c-0.6-0.1-1.2,0.4-1.3,1.1c-0.1,0.6,0.4,1.2,1.1,1.3c0.1,0,0.1,0,0.2,0c0.6-0.1,1.1-0.6,1.1-1.3  C157.3,89,156.8,88.6,156.3,88.5z"></path>	<path class="st2" d="M159.9,103.3h3.9v-0.8h-1l-4.2-10.2H158l-4.4,10.2h-0.9v0.8h3.2v-0.8h-1.3l1.1-2.5h4.2l1,2.5h-1V103.3z   M156.1,99l1.8-4.1l1.7,4.1H156.1z"></path>	<path class="st2" d="M160.3,90.9c0.6,0,1.2-0.5,1.2-1.2c0-0.6-0.5-1.2-1.2-1.2c-0.6,0-1.2,0.5-1.2,1.2  C159.2,90.3,159.7,90.9,160.3,90.9C160.3,90.9,160.3,90.9,160.3,90.9z"></path>	<polygon class="st2" points="175.5,94.8 175.5,92.2 174.6,92.2 174.6,92.6 166.1,92.6 166.1,92.2 165.3,92.2 165.3,94.8   166.1,94.8 166.1,93.5 169.5,93.5 169.5,102.4 167.5,102.4 167.5,103.3 173.2,103.3 173.2,102.4 171.2,102.4 171.2,93.5   174.6,93.5 174.6,94.8  "></polygon>	<polygon class="st2" points="77.3,125.7 71.2,125.7 77.8,116.5 77.8,116 69.6,116 69.6,115.5 68.8,115.5 68.8,118.1 69.6,118.1   69.6,116.9 75.4,116.9 68.8,126.1 68.8,126.6 78.1,126.6 78.1,124.1 77.3,124.1  "></polygon>	<path class="st2" d="M89.1,116.9h1.7v5.8c0.1,1.7-1.1,3.1-2.8,3.2c-0.1,0-0.1,0-0.2,0c-1.7,0-2.8-1.3-2.8-3.2v-5.8h1.8V116h-5.2  v0.9h1.8v6.3c0,2.2,1.8,3.8,4.3,3.8c2.3,0.2,4.2-1.5,4.4-3.8c0-0.1,0-0.3,0-0.4v-5.8h1.7V116h-4.6V116.9z"></path>	<path class="st2" d="M108.8,121c1.7,0,2.9-1,2.9-2.4c0-1.6-1.2-2.7-3.2-2.7h-5.6v0.8h1.7v9h-1.7v0.8h6c2.2,0,3.5-1,3.5-2.8  S111.1,121.1,108.8,121z M106.4,116.9h1.6c0.9-0.1,1.7,0.5,1.7,1.4c0,0.1,0,0.3,0,0.4c0.1,1-0.7,1.9-1.7,1.9c-0.1,0-0.2,0-0.2,0  h-1.5L106.4,116.9z M108,125.7h-1.6v-4.2h1.7c1.5,0,2.3,0.7,2.3,2.2S109.6,125.7,108,125.7L108,125.7z"></path>	<polygon class="st2" points="123.8,125.7 119.9,125.7 119.9,121.7 122.8,121.7 122.8,122.8 123.7,122.8 123.7,119.6 122.8,119.6   122.8,120.7 119.9,120.7 119.9,116.9 123.6,116.9 123.6,118.1 124.5,118.1 124.5,115.5 123.6,115.5 123.6,116 116.4,116   116.4,116.8 118.1,116.8 118.1,125.8 116.4,125.8 116.4,126.6 124.6,126.6 124.6,124.5 123.8,124.5  "></polygon>	<path class="st2" d="M137.5,124.9l-2.1-3.1c1.5-0.2,2.6-1.5,2.5-3c0-1.9-1.2-2.9-3.4-2.9h-5.4v0.9h1.7v8.9h-1.7v0.8h5.2v-0.8h-1.7  v-3.8h1.1l2.5,3.7c0.6,0.9,0.8,1,1.8,1h1.7v-0.8h-0.6C138.2,125.7,137.8,125.4,137.5,124.9z M132.4,121v-4.1h1.6  c1.2,0,1.8,0.7,1.8,2c0.1,1-0.6,2-1.6,2.1c-0.1,0-0.1,0-0.2,0L132.4,121z"></path>	<polygon class="st2" points="150,125.7 146.1,125.7 146.1,116.9 147.9,116.9 147.9,116 142.6,116 142.6,116.9 144.4,116.9   144.4,125.8 142.6,125.8 142.6,126.6 150.8,126.6 150.8,124.3 150,124.3  "></polygon>	<polygon class="st2" points="154,116.9 155.7,116.9 155.7,125.8 154,125.8 154,126.6 159.2,126.6 159.2,125.8 157.5,125.8   157.5,116.9 159.2,116.9 159.2,116 154,116  "></polygon>	<polygon class="st2" points="170.8,116.9 172.6,116.9 172.6,123.5 166.1,116 163.1,116 163.1,116.9 164.7,116.9 165.2,117.5   165.2,125.8 163.5,125.8 163.5,126.6 168.1,126.6 168.1,125.8 166.4,125.8 166.4,119 173.1,126.8 173.7,126.8 173.7,116.9   175.5,116.9 175.5,116 170.8,116  "></polygon>	<path class="st2" d="M219.4,136.7c0.5-0.4,0.6-1.1,0.2-1.7s-1.1-0.6-1.7-0.2l0,0c-0.5,0.4-0.6,1.1-0.2,1.6c0,0,0,0,0,0  C218.2,137,218.9,137.1,219.4,136.7L219.4,136.7z"></path>	<polygon class="st2" points="227.7,147.7 227.2,147.3 226.5,148.2 223.1,145.4 231,143.3 231.3,143.1 226.8,139.3 227,139   226.5,138.6 225.3,140.1 225.8,140.4 226.3,139.8 229.5,142.4 221.6,144.5 221.4,144.8 226.5,149.1 227.7,147.7  "></polygon>	<path class="st2" d="M241.9,149.5l-2.9-1.6l-0.3,0.6l1.1,0.6l-2,3.6c-0.5,1.1-1.8,1.6-2.8,1.1c-0.1,0-0.1-0.1-0.2-0.1  c-1-0.6-1.3-1.8-0.8-2.8c0-0.1,0.1-0.1,0.1-0.2l2-3.6l1.1,0.6l0.3-0.6l-3.3-1.8l-0.3,0.6l1.1,0.6l-2.2,4c-0.7,1.4-0.2,3.1,1.2,3.8  c0,0,0.1,0,0.1,0.1c1.4,0.9,3.3,0.5,4.1-0.9c0-0.1,0.1-0.1,0.1-0.2l2-3.7l1.1,0.6L241.9,149.5L241.9,149.5z"></path>	<path class="st2" d="M249.8,160c1.5,0.4,2.6-0.1,2.9-1.3s-0.4-2.2-1.9-2.6c1,0.4,2-0.1,2.4-1.1c0,0,0-0.1,0-0.1  c0.3-1.1-0.4-2.1-1.8-2.4l-3.9-1l-0.1,0.6l1.2,0.3l-1.6,6.2l-1.2-0.3l-0.1,0.6L249.8,160L249.8,160z M249,156l1.2,0.3  c0.8,0.1,1.4,0.8,1.3,1.5c0,0.1,0,0.3-0.1,0.4c-0.2,0.9-0.9,1.2-1.9,1l-1.2-0.2l0.7-2.9V156z M249.8,152.8l1.1,0.3  c0.6,0.1,1.1,0.7,1,1.3c0,0.1,0,0.2-0.1,0.3c-0.1,0.7-0.8,1.2-1.5,1c-0.1,0-0.1,0-0.2,0l-1-0.2L249.8,152.8L249.8,152.8z"></path>	<polygon class="st2" points="264.2,160 263.6,160 263.6,160.9 260.7,160.8 260.8,157.9 263,158 262.9,158.8 263.5,158.8   263.6,156.5 263,156.5 263,157.3 260.9,157.2 260.9,154.4 263.7,154.6 263.6,155.4 264.2,155.4 264.3,153.6 263.7,153.6   263.7,153.9 258.5,153.7 258.4,154.3 259.7,154.4 259.5,160.8 258.2,160.8 258.2,161.4 264.1,161.6 264.2,160  "></polygon>	<path class="st2" d="M277.6,159.4l-0.5,0.1c-0.4,0-0.8-0.1-1-0.5l-1.9-2c1-0.3,1.7-1.3,1.4-2.4c-0.2-1.3-1.2-1.9-2.8-1.6l-3.9,0.6  l0.1,0.7l1.2-0.2l1,6.3l-1.2,0.2l0.1,0.6l3.7-0.6l-0.1-0.6l-1.2,0.2l-0.4-2.7l0.8-0.1l2.2,2.4c0.3,0.5,0.9,0.7,1.4,0.5l1.2-0.2  L277.6,159.4L277.6,159.4z M271.6,153.9l1.1-0.2c0.9-0.1,1.4,0.3,1.5,1.2c0.2,0.7-0.2,1.5-0.9,1.7c0,0-0.1,0-0.1,0l-1.2,0.2  L271.6,153.9L271.6,153.9z"></path>	<polygon class="st2" points="287.7,154.7 287.1,154.9 287.5,155.9 284.9,156.9 282.6,150.9 283.8,150.5 283.5,149.9 280,151.2   280.3,151.8 281.4,151.4 283.7,157.4 282.5,157.8 282.8,158.4 288.3,156.2 287.7,154.7  "></polygon>	<polygon class="st2" points="295.4,151.6 294.3,152.3 291,146.8 292.1,146.1 291.7,145.6 288.5,147.5 288.9,148.1 289.9,147.4   293.2,152.9 292.2,153.6 292.5,154.1 295.7,152.1 295.4,151.6  "></polygon>	<polygon class="st2" points="301.7,138.4 302.6,137.5 302.2,137 299.7,139.3 300.2,139.8 301.1,138.9 304.3,142.4 297.2,141.6   295.7,143.1 296.1,143.6 297,142.8 297.5,142.9 301.6,147.2 300.7,148.1 301.1,148.5 303.5,146.3 303.1,145.8 302.2,146.7   298.8,143.1 306.2,143.9 306.6,143.6 301.7,138.4  "></polygon>	<path class="st2" d="M309.9,133c-0.5-0.4-1.3-0.2-1.6,0.3c-0.4,0.5-0.2,1.3,0.3,1.6s1.3,0.2,1.6-0.3  C310.6,134.1,310.4,133.4,309.9,133z"></path>	<polygon class="st2" points="212.7,118.7 213.2,119.8 207.3,122.4 206.8,121.3 206.2,121.5 207.7,124.9 208.3,124.7 207.8,123.6   210.4,122.4 212.2,126.6 209.6,127.7 209.1,126.6 208.6,126.8 210.1,130.3 210.7,130 210.2,128.9 216,126.2 216.6,127.4   217.1,127.1 215.6,123.7 215,124 215.5,125.1 212.8,126.3 211,122.2 213.7,120.9 214.2,122.1 214.8,121.8 213.2,118.4 212.7,118.7    "></polygon>	<path class="st2" d="M203.1,106.3l0.5,3.3l0.7-0.1l-0.2-1.2l4.1-0.7c1.1-0.3,2.3,0.4,2.6,1.6c0,0.1,0,0.1,0,0.2  c0.2,1.1-0.6,2.2-1.7,2.3c-0.1,0-0.1,0-0.2,0l-4.1,0.7l-0.2-1.2l-0.7,0.1l0.6,3.7l0.7-0.1l-0.2-1.2l4.5-0.7  c1.5-0.3,2.5-1.8,2.2-3.3c0-0.1,0-0.1,0-0.2c-0.2-1.6-1.6-2.9-3.3-2.7c-0.1,0-0.2,0-0.2,0l-4.1,0.7l-0.2-1.2L203.1,106.3  L203.1,106.3z"></path>	<polygon class="st2" points="211.2,90.2 211,91.4 204.7,90.6 204.8,89.4 204.1,89.3 203.8,91.9 209.1,95.2 203.2,97.1 202.9,99.6   203.5,99.7 203.7,98.4 210,99.2 209.9,100.5 210.5,100.5 210.9,97.2 210.3,97.2 210.1,98.4 205,97.8 211.2,95.7 205.3,92   210.8,92.7 210.7,93.9 211.3,94 211.8,90.2 211.2,90.2  "></polygon>	<path class="st2" d="M214.7,81.4c0.6-1.5,0.2-2.6-1-3s-2.2,0.1-2.8,1.6c0.5-0.9,0.1-2-0.8-2.5c0,0-0.1,0-0.1,0  c-1.1-0.4-2.1,0.2-2.6,1.5l-1.4,3.8l0.6,0.2l0.4-1.2l6,2.3l-0.4,1.2l0.6,0.2L214.7,81.4L214.7,81.4z M210.6,81.8l0.4-1.1  c0.2-0.8,0.9-1.3,1.7-1.1c0.1,0,0.2,0.1,0.3,0.1c0.9,0.3,1.1,1,0.7,2.1l-0.4,1.1L210.6,81.8z M207.5,80.6l0.4-1.1  c0.2-0.6,0.8-1,1.4-0.8c0.1,0,0.2,0.1,0.2,0.1c0.7,0.2,1.1,0.9,0.9,1.6c0,0.1,0,0.1-0.1,0.2l-0.4,1L207.5,80.6L207.5,80.6z"></path>	<path class="st2" d="M220,72c1.3-1.8,0.9-4.3-0.9-5.6s-4.3-0.9-5.6,0.9c-1.3,1.8-0.9,4.3,0.9,5.6C216.2,74.2,218.7,73.8,220,72z   M214,67.8c0.8-1.2,2.7-1.2,4.2-0.2s2.1,2.8,1.3,4s-2.7,1.2-4.2,0.1S213.2,68.9,214,67.8L214,67.8z"></path>	<polygon class="st2" points="228.3,59.8 227.9,60.3 228.6,61 226.6,62.9 222.2,58.4 223.1,57.5 222.6,57 219.9,59.6 220.4,60.1   221.3,59.2 225.7,63.8 224.8,64.7 225.2,65.1 229.5,61 228.3,59.8  "></polygon>	<path class="st2" d="M232.2,58.8l3.4-2.1c1.8-1,2.5-3.4,1.5-5.2c0-0.1-0.1-0.1-0.1-0.2c-1.2-1.8-3.6-2.3-5.4-1.2c0,0,0,0-0.1,0  l-3.3,2.1l0.3,0.5l1.1-0.7l3.4,5.5l-1.1,0.7L232.2,58.8L232.2,58.8z M234,56.9l-3.4-5.4l1.1-0.7c1.6-0.7,3.5,0.1,4.2,1.7  c0.6,1.3,0.2,2.8-0.9,3.7L234,56.9L234,56.9z"></path>	<polygon class="st2" points="247.5,50.6 246.2,51.1 244.1,45 246.4,44.2 246.7,45.1 247.3,44.9 246.6,43.1 246,43.3 246.2,43.6   240.4,45.6 240.3,45.3 239.7,45.5 240.3,47.3 240.9,47.1 240.6,46.2 242.9,45.5 245,51.5 243.6,52 243.8,52.5 247.7,51.2   247.5,50.6  "></polygon>	<polygon class="st2" points="255.2,44.9 252,45.5 252.3,46.8 255.4,46.2 255.2,44.9  "></polygon>	<path class="st2" d="M268.4,41.2H265v0.7h1.2l-0.1,4.1c0.1,1.2-0.8,2.2-2,2.3c-0.1,0-0.1,0-0.2,0c-1.1,0-2-0.9-2-2  c0-0.1,0-0.2,0-0.3l0.1-4.2h1.3v-0.7l-3.7,0v0.7h1.3l-0.1,4.5c0,1.6,1.3,2.8,2.9,2.8c0,0,0.1,0,0.1,0c1.7,0.1,3.1-1.1,3.2-2.8  c0-0.1,0-0.2,0-0.2l0.1-4.2h1.2L268.4,41.2L268.4,41.2z"></path>	<polygon class="st2" points="282,44.7 283.2,45 283.3,44.3 280.1,43.5 279.9,44.1 281.1,44.4 279.9,49 276.8,42.6 274.7,42   274.6,42.7 275.7,43 275.9,43.5 274.4,49.2 273.2,48.9 273,49.5 276.2,50.4 276.4,49.8 275.2,49.5 276.4,44.7 279.6,51.4   280.1,51.6 282,44.7  "></polygon>	<polygon class="st2" points="289.3,55 288.2,54.4 291.2,48.7 292.3,49.3 292.6,48.7 289.3,47 289,47.5 290.1,48.1 287.1,53.8   286,53.2 285.7,53.7 289,55.5 289.3,55  "></polygon>	<polygon class="st2" points="301.7,55.6 302.3,56 302.7,55.5 300.8,54.1 300.4,54.6 301.1,55.2 296.4,58 297.7,52.6 298.6,53.2   299,52.7 296.4,50.8 296,51.3 296.6,51.8 294.7,59.3 295,59.6 301.7,55.6  "></polygon>	<polygon class="st2" points="306,67.8 305.6,67.3 304.9,67.9 303,65.8 305.2,63.8 306.6,65.4 306,66 306.4,66.4 308.1,64.9   307.7,64.4 307.1,65 305.7,63.4 307.7,61.5 309.6,63.6 308.9,64.2 309.3,64.6 310.7,63.3 310.3,62.9 310.1,63.1 306.6,59.2   306.1,59.7 306.9,60.6 302.2,64.9 301.3,64 300.9,64.4 304.8,68.8 306,67.8  "></polygon>	<path class="st2" d="M313.3,83.6c-0.2,0.7-0.1,1.3,0.1,2c0.3,1.2,1.5,1.9,2.7,1.6c0,0,0.1,0,0.1,0c1-0.3,1.4-0.9,1.7-2.5  c0.1-0.4,0.2-0.8,0.3-1.3c0.1-0.6,0.3-0.9,0.7-1c0.6-0.2,1.2,0.1,1.4,0.7c0,0.1,0,0.1,0,0.2c0.1,0.5,0.1,1,0,1.5l-0.8,0.2l0.2,0.6  l1.9-0.6l-0.2-0.6l-0.4,0.1c0.1-0.5,0.1-1.1-0.1-1.6c-0.3-1.2-1.5-1.9-2.7-1.6c0,0,0,0,0,0c-0.9,0.3-1.3,1-1.6,2.6  s-0.5,2.1-1.1,2.3s-1.2-0.2-1.5-1c-0.2-0.6-0.2-1.2,0-1.8l0.8-0.3l-0.2-0.6l-2,0.6l0.2,0.6L313.3,83.6L313.3,83.6z"></path>	<polygon class="st2" points="316.4,96 316.2,94.7 322.6,93.8 322.7,95.1 323.4,95 322.9,91.3 322.2,91.4 322.4,92.6 316.1,93.5   315.9,92.3 315.3,92.3 315.8,96.1 316.4,96  "></polygon>	<polygon class="st2" points="316.5,105.7 316.6,104.2 323,104.5 322.9,106.9 322,106.9 321.9,107.5 323.9,107.6 323.9,106.9   323.6,106.9 323.8,100.8 324.1,100.8 324.1,100.2 322.2,100.2 322.2,100.8 323.1,100.8 323,103.2 316.6,103 316.7,101.6   316.1,101.6 315.9,105.6 316.5,105.7  "></polygon>	<path class="st2" d="M314.1,118.1l0.2-0.7l7.8-1.2l0.1-0.4l-6.3-4.9l0.1-0.6l-0.6-0.2l-0.6,2.3l0.6,0.1l0.2-0.9l1.6,1.2l-0.7,2.9  l-1.9,0.3l0.2-0.7l-0.6-0.2l-0.7,2.7L314.1,118.1z M323.4,118.8c0.5,0.1,0.9-0.2,1.1-0.6c0.2-0.5-0.1-1-0.5-1.1  c-0.5-0.2-1,0.1-1.1,0.5c0,0,0,0.1,0,0.2C322.6,118.2,322.9,118.6,323.4,118.8z M324.1,115.9c0.5,0.1,1-0.2,1.1-0.6  c0.1-0.5-0.2-1-0.6-1.1c-0.5-0.1-1,0.2-1.1,0.6c0,0,0,0,0,0C323.4,115.3,323.6,115.8,324.1,115.9z M317.9,113.3l2.5,1.9l-3.1,0.5  L317.9,113.3z"></path>	<polygon class="st2" points="310.7,126.1 311.3,124.8 317.1,127.6 316,129.7 315.2,129.4 314.9,129.9 316.7,130.7 316.9,130.2   316.6,130 319.2,124.5 319.5,124.6 319.8,124.1 318,123.3 317.8,123.8 318.6,124.2 317.6,126.4 311.8,123.7 312.4,122.4   311.8,122.2 310.1,125.9 310.7,126.1  "></polygon>	<path class="st2" d="M311.9,79.1l-0.2-0.4c-0.2-0.4-0.2-0.8,0.1-1.1l1.2-2.4c0.6,0.8,1.8,1.1,2.7,0.5c1.2-0.7,1.4-1.8,0.6-3.2  l-1.9-3.4l-0.6,0.3l0.6,1.1l-5.6,3.1l-0.6-1.1l-0.5,0.3l1.8,3.3l0.5-0.3l-0.6-1.1l2.4-1.3l0.4,0.7l-1.5,2.9c-0.4,0.4-0.4,1,0,1.4  l0.6,1.1L311.9,79.1L311.9,79.1z M315,71.6l0.6,1c0.4,0.6,0.2,1.4-0.4,1.7c-0.1,0.1-0.2,0.1-0.2,0.1c-0.6,0.5-1.4,0.3-1.9-0.2  c0-0.1-0.1-0.1-0.1-0.2l-0.6-1L315,71.6L315,71.6z"></path>	<path class="st3" d="M276.6,76.8c-0.1,0-1.5-0.7-1.8-0.7s-0.9-0.5-1.4-0.9s-0.9-0.6-1-0.7s-0.8-0.3-1.1-0.5l-1.6-1l-1.7-1.2  c-0.2-0.2-0.4-0.3-0.7-0.3c-0.7-0.2-1.5-0.3-2.3-0.2l-2.8,0.4c-0.1,0-2,0.4-2.1,0.5s-1.6,1-2.1,1.3l0,0l-0.2,1.1l0.1-0.1  c0.7-0.7,1.6-1.3,2.6-1.8c1.5-0.4,3.1-0.5,4.6-0.6c1.2,0,2.4,0.4,3.4,1.1l1.2,1l1.8,0.9c1.4,1,2.8,1.7,4.4,2.3  c0.9,0.4,1.8,0.9,2.5,1.6l0.1,0.1V79C278.9,78,276.8,76.9,276.6,76.8z"></path>	<path class="st3" d="M284.2,85.6l-0.3-1.8l-0.2-1.1l-0.4-1.2c-0.4-1.3-1-2.6-1.9-3.6c-0.4-0.7-0.8-1.2-1.4-1.7l-0.3-0.3  c-0.5-0.5-1.2-1-1.8-1.4c-0.2-0.1-1.9-1.2-2-1.2l-0.3-0.1c-0.4-0.1-0.9-0.3-1-0.4c-0.4-0.1-0.7-0.1-1.1-0.2l0.2-0.1h-0.5l0,0  c0,0-0.1,0.1-0.1,0.1c0,0.1,0.1,0.2,0.9,0.4c0.2,0,1.8,0.7,1.8,0.7s2,1.2,2.3,1.4c1,0.8,1.8,1.7,2.6,2.7c1,1.4,1.7,3,2.1,4.7  l0.9,2.6l1,1.8L284.2,85.6z"></path>	<path class="st2" d="M287.1,93.2c-0.1-0.7-0.2-1.6-0.3-2.1c-0.2-1-0.5-1.9-1-2.8c-0.3-0.5-0.7-0.9-1.2-1.3l-0.2-0.1l0.7,1.6  c0.7,1.8,1.2,3.8,1.3,5.7l-0.3,3.6l-0.4,1.3c-0.1,1.2-0.1,1.2-0.1,1.2l0,0l0,0c0.5-0.5,0.8-1,1-1.7c0-0.1,0.3-1.5,0.3-1.8  c0.1-0.9,0.2-1.8,0.2-2.8C287.2,93.9,287.1,93.6,287.1,93.2z"></path>	<path class="st2" d="M293.1,112.6c-0.4-0.3-0.6-0.7-0.5-1.2l0.2-2.6c0-0.8-0.2-1.6-0.5-2.3c-0.2-0.6-1.1-1-1.2-1.1  c-0.5-0.1-1.1-0.1-1.6-0.1h-0.1c-0.7,0-1.4,0.1-2.1,0.4c-0.1,0-0.1,0-0.2,0c0-0.1,0-0.1,0.1-0.2c0.1-0.3,0.2-0.7,0.1-1.1  c-0.2-0.6-0.3-1.2-0.3-1.9l1.1-1.6c1-1.9,1.4-4.1,1.3-6.2c-0.1-3.1-0.7-6.1-1.5-9c-1.1-3.4-2.5-6.7-4.1-9.9  c-3.2-5.1-10-6.1-10.1-6.1c-3-0.4-6.1-0.6-9.2-0.4c-1.6,0.1-3.2,0.4-4.7,1c-1.5,0.6-2.8,1.6-3.8,2.8c-0.1,0.2-0.2,0.5-0.3,0.7  c-0.7,0.5-1.7,0.5-2.4-0.1c-1.1-0.5-1.3-2.7-1.3-2.7c-0.2-0.5-0.6-0.8-1.1-0.8c-1.5-0.3-3-0.1-4.3,0.6c-0.8,0.6-1.4,1.4-1.9,2.2  c-0.3,0-1.8,0.3-3.3,2.7l-1.3,1.6l-1.8,1.6l0,0c-0.5,1.3-0.6,2.8-0.3,4.2c0.1,0.2,0.6,0.6,1.6,1.2l0,0c0.2,1.3,0.1,2.6-0.2,3.8  c0,0-0.5,1.3-0.6,1.5l-0.6,1c-0.3,0.4-0.4,0.9-0.4,1.4v1c0,0.6-0.2,1.2-0.5,1.7l-1.3,1.8l-1.2,1.7c0,0-0.8,1.4-1,1.7l-0.2,0.2  c-0.4,0.4-0.8,1-0.9,1.6c0,0.6,0.2,1.1,0.6,1.5c0.4,0.4,0.9,0.5,1.4,0.5h0.1h0.6l0,0c0,0.1,0,0.3,0,0.5l0.1,0.5l-0.1,1.1  c-0.1,0.4-0.1,0.9,0,1.3c0,0,0.3,0.3,0.2,0.5l-0.1,0.5l-0.1,0.3c0,0.1-0.2,0.9,0.2,1.1l0.5,0.2c0,0,0.6,0.5,0.3,1.1l-0.5,0.8  c-0.3,0.3-0.5,0.7-0.5,1.2c-0.2,1,0,2,0.5,2.8c0.7,1,1.8,1.6,3,1.7l2.7,0.3l2.9,0.5c0.5,0.2,0.9,0.7,0.8,1.3v0.4  c0,0.5,0.2,1,0.4,1.4l0.6,1.4l0.7,1.3l0.7,1.7c0.4,1.1,0.6,2.2,0.6,3.4l-0.1,3.5v0.1h1h0.1v-4.8c-0.2-1.1-0.5-2.3-1-3.3l-0.6-1.2  l-0.9-1.5c-0.4-0.9-0.7-1.9-0.8-2.8v-1c1.2-0.4,2.3-0.8,3.4-1.3c0.2-0.1,2.7-1.7,3.7-2.5c2-1.7,2.5-2.1,2.6-2.3l0,0  c0.8-0.6,1.5-1.4,2.1-2.2h0.5c0.1,0,0.2,0,0.3,0.1c0.4,0.3,0.4,1.4,0.5,1.4l1.9,8.5l-2.4,3.7l-2.6,6.1l-2,7.5v0.1h1.4V137  c0.1-6,4.7-14.3,4.8-14.4l4.4-6l4.9-5.4l4.3-4.5c0.1-0.1,3.5-2.4,3.9-2.7c0.1,0,0.2,0,0.3,0c0.3,0.1,0.4,0.6,0.4,0.6  c0.3,0.5,0.4,1,0.6,1.6c0.4,1.3,0.3,1.7,0.2,1.8c0,0.1-0.1,0.1-0.2,0.1l0,0c-0.9,0.1-1.7,0.6-2.2,1.3c-0.6,1-0.8,2.2-0.5,3.3  c0,0,0,0.1,0,0.1h-0.2c-1,0-1.9,0.5-2.3,1.4c-0.7,1.5-0.8,3.2-0.3,4.7c0.2,0.9,0.3,1.8,0.2,2.6c0,0.2-0.1,1.7,0.6,2.1  c0.3,0.2,0.7,0.4,1,0.5c0.1,0.1,0.4,0.7,0.9,0.8h0.1c0.6,0,1.1-0.4,1.6-1.2l0-0.1c0.1-0.1,1.2-1.1,1.2-1.1c0.5-0.3,1-0.3,1.5-0.2  c0.1,0,1.1,0,1.3-0.1c0.7-0.1,1.3-0.5,1.6-1.1c0.1,0.7,0.4,2.8,2,3.3c-0.1,0.2-0.2,0.5-0.1,0.8c-0.2,0.9,0.1,1.9,0.8,2.5  c1.6,0.9,3.6,0.9,5.2,0.1c1-0.7,1.6-1.9,1.6-3.1c0.1-0.9,0.1-1.9,0-2.8l0,0c-0.9-1.1-0.9-2.7,0-3.8c0.6-0.7,1-1.7,1-2.6l0,0  C294.2,113.3,293.1,112.6,293.1,112.6z M291.7,121.8c0.4,1,0.5,2.1,0.3,3.1c-0.5,1.9-2.4,3-4.3,2.5c-0.5-0.1-1-0.4-1.4-0.7  c-0.3-0.4-0.5-1-0.3-1.6l0.1-0.1c0.2-0.5,0.5-1.5,2.6-1.6c0.4,0,1.1,0.6,1.1,1c0,0.2-0.2,0.3-0.5,0.3h-0.1c-0.1,0-0.2,0-0.3,0  c-0.2,0-0.4,0-0.5,0.2c0,0.1,0,0.2,0,0.2c0,0,0.2,0.5,1,0.5h0.3c0.1,0,0.3,0,0.4,0c0.8-0.2,0.7-1.3,0.7-1.4  c-0.1-0.5-0.4-0.9-0.8-1.2l-0.9-0.5l-0.5-0.1l-0.9,0.1c-0.8,0.2-1.5,0.7-1.8,1.4c-0.7-0.4-1.1-1.1-1.4-1.8l-0.5-1.4  c0.1-0.2,0.2-0.4,0.4-0.7l0.5,0.1c0.7,0.2,1.5,0.3,2.2,0.3h0.4c0.1,0,1.3-0.1,1.3-0.1h0.8c0.6,0.1,1.2,0.4,1.7,0.8l0.3,0.4  C291.6,121.6,291.6,121.8,291.7,121.8L291.7,121.8z M274.3,119.6L274.3,119.6c0-0.2,0.1-0.3,0.2-0.4c0.3-0.3,0.7-0.4,1.1-0.4  c0.4,0,0.7,0.2,0.9,0.6l0,0c0.2,0.2,0.4,0.5,0.5,0.8c-0.6,0.1-1.1,0.3-1.6,0.6c-0.4,0.3-0.7,0.6-0.9,1.1c-0.1-0.6-0.2-1.3-0.2-1.9  L274.3,119.6z M275.8,121.2c0.5-0.3,1.1-0.4,1.6-0.2l0.8,0.7c0,0.5-0.3,1-0.8,1.2l0,0c-0.5,0.6-1,1-1.4,1l0,0  c-0.2,0-0.4-0.1-0.5-0.3l0,0c-0.2-0.1-0.4-0.3-0.5-0.5C274.9,122.4,275.2,121.7,275.8,121.2z M278.7,121.2l-0.6-0.4  c-0.1-0.1-0.2-0.1-0.2-0.2l-0.6-1.4l0,0c0,0-0.8-1-1.4-1.1h-0.1c-0.2,0-0.4,0-0.6,0h-0.1c-0.1,0-0.6,0.2-0.9,0.3h-0.5  c-0.3-0.8-0.2-1.8,0.2-2.6c0.1-0.2,0.3-0.3,0.5-0.3c0.4-0.1,0.8,0,1.1,0.3l1.1,1.2l0.7,0.9c0.4,0.7,0.9,1.3,1.4,1.9l0,0h0.1  c0,0,0.1,0,0.1,0c0.1-0.2-0.2-0.9-0.4-1.3c-0.1-0.1-0.2-0.3-0.3-0.5c-0.4-0.8-0.9-1.5-1.5-2.1l-0.2-0.2c-0.5-0.6-1.1-1-1.9-1.2  c0.5-0.5,1.2-0.8,1.9-0.9l0,0l0.5,0.3l0.4,0.3l0.5,0.6l0.4,0.5l0.4,1.1l0.2,0.8l0.4,0.7l0.8,1.1l0,0c0.2,0.2,0.5,0.2,0.8,0.2  c0.1,0,0.2,0,0.3,0c0.5-0.2,0.9-0.5,1.1-1c0.8-1.7-1.7-5.4-2-5.7c0-1.3,0.5-2.6,1.3-3.7c0.5,0,1,0,1.5-0.1v0.2l-0.1,1.1  c-0.1,0.3-0.2,0.6-0.4,0.8c-0.3,0.5-0.6,1.1-0.7,1.7c0,0.3,0,0.6,0.1,0.9c0.6,0.7,1.5,1.9,1.5,2l0,0c0.3,2.2,0.1,2.7-0.5,3.8  c-0.1,0.3-0.3,0.6-0.5,1.1l-0.6,0.6c-0.5,0.4-1.2,0.7-1.9,0.7l-1.3-0.1L278.7,121.2z M276.8,112c0.1-0.6,0.2-1.3,0.5-1.9  c0.4-0.5,0.9-0.8,1.5-1c0.3,0,0.6-0.1,0.8-0.3h1c-0.3,0.4-2.2,3-0.8,4.8c1,1.3,2,3.2,1.9,3.9c0,0.1-0.1,0.2-0.2,0.3l0,0  c-0.3,0.4-0.6,0.5-0.9,0.5s-0.5-0.6-0.5-0.7l-0.5-1l-0.3-1.2c-0.2-0.4-0.4-0.8-0.7-1.1l-0.3-0.4l-0.3-0.3l-0.4-0.5l-0.4-0.3  l-0.2-0.2h-0.1L276.8,112z M236.5,107.8c0.1-0.2,0.4-0.3,0.6-0.2c0.2,0.2,0.4,0.3,0.7,0.4h0.9c0.1,0,0.2,0,0.3-0.1  c0.1-0.1,0.1-0.3,0-0.4c0-0.1-0.1-0.1-0.2-0.1l0,0H238l0,0l0,0c0,0-0.1,0-0.1,0c-0.1,0-0.2-0.1-0.5-0.5c-0.1-0.1-0.2-0.2-0.4-0.2  c-0.1,0-0.2,0-0.4-0.1h-0.2c-0.1,0-0.2,0-0.2-0.1c0-0.1,0-0.2,0-0.3l0.1-0.5c0.2-0.7,0.2-1.3,0-2l0.1,0.1l0.8,0.1l1,0.4  c0,0,0.6,0.2,1.6-0.5l0,0l0,0c-0.2-0.8-0.5-1.5-0.9-2.1l-0.1-0.1l-0.2,0.3l0,0l0.3,0.7c0.2,0.5,0.2,0.7,0.2,0.8s-0.1,0.1-0.2,0.1  l0,0c-0.5,0.2-1,0.1-1.3-0.3l0,0c-0.5-0.3-1-0.4-1.5-0.5c0,0-1.1,0.1-1.4,0.1c-0.4,0.1-0.7,0-1-0.2c-0.2-0.2-0.2-0.5-0.2-0.8  c0-0.1,0-0.2,0-0.3c0.5-0.8,1-1.6,1.6-2.3l0.4-0.5l1.2-2l0.9-1.2c0.6-0.5,0.9-1.2,1.1-2l0.1-1.1l0,0c-0.1-0.4,0-0.9,0.2-1.3l0.5-1  l0.5-1.4l0.4-1.4l0.2-1.9V85c0.4-0.5,0.6-1.1,0.8-1.7c0.2-0.7,0.7-1.3,1.4-1.6c0.3-0.2,0.7-0.3,0.9-0.4l0.4-0.2l0,0  c0.1-0.1,0.1-0.3,0.1-0.4c-0.1-0.1-0.2-0.2-0.4-0.2l0,0c-0.4,0.1-0.8,0.3-1.1,0.5c-0.5,0.3-0.9,0.5-1.3,0.9  c-0.2,0.2-0.4,0.5-0.6,0.7c-0.1,0.2-0.2,0.4-0.4,0.5l0,0c-0.1,0.2-0.3,0.3-0.5,0.4c-0.7-0.3-1.1-0.7-1.1-1c0,0,0-1.1,0-1.5  c0-0.7,0.1-1.3,0.5-1.9c0.2,0.1,0.4,0.2,0.6,0.2h0.2c1.1,0,2.1-0.4,2.9-1.2c0.6-0.5,1.3-0.7,2-0.6l-0.1,0.2  c-0.1,0.2-0.6,1.5-0.4,1.8c0.1,0.1,0.1,0.2,0.1,0.3c0.2,0.4,0.3,0.8,0.6,0.8c0,0,0.1,0,0.1-0.1c0.1-0.1,0-0.3,0-0.7  c-0.2-0.5-0.2-1,0-1.5c0.8-1.2,1.9-2.2,3.1-2.8c1.3-0.6,2.3-0.7,2.9-0.4c0.5,0.4,1,0.8,1.4,1.3c0.2,0.2,0.4,0.4,0.6,0.6  c0.4,0.3,0.8,0.4,1.2,0.4c-0.1,0.3-0.2,0.7-0.3,1c-0.5-0.1-1-0.1-1.5,0c-0.5-0.5-2.2-2-3.3-1.5c-0.9,0.4-1.7,0.9-2.4,1.6  c-0.2,0.2-0.5,0.7-0.5,0.9c0,0.1,0,0.1,0.1,0.1l0,0c0.3,0,0.8-0.5,1-0.7c0.6-0.6,1.4-0.9,2.2-1.1l0,0c0.7,0.1,1.4,0.5,1.9,1  c-0.1,0-0.2,0.1-0.4,0.2c-0.5,0.3-1,0.7-1.4,1.2c-0.1,0.1-0.1,0.1-0.2,0.2l0,0c-0.6,0.6-1,0.9-1.3,0.9l0,0  c-0.5-0.1-0.9-0.3-1.3-0.5c-0.2-0.1-0.4-0.2-0.6-0.2c-0.4-0.1-0.8,0-1.1,0.2c-0.3,0.1-0.5,0.3-0.6,0.6c0,0,0,0.1,0,0.1  c0.1,0.1,0.4,0.1,1,0h0.4c0.4,0.1,0.9,0.3,1.2,0.5c0.2,0.1,0.5,0.2,0.6,0.3c0.1,0,0.2,0,0.2,0c0.6-0.1,1.2-0.4,1.7-0.9  c0.2-0.2,0.3-0.3,0.4-0.5c0.4-0.7,1-1.2,1.7-1.6c0.5-0.3,1.1-0.3,1.7-0.2c-0.1,0.3-0.2,0.6-0.4,0.9l-0.1,0.3  c-0.2,0.1-0.4,0.3-0.6,0.5c-1,0.9-2.2,1.7-3.4,2.2l0,0c-0.6,0.4-2.3,0-3-0.2c0,0-0.1,0-0.1,0c0,0,0,0,0,0.1  c0.3,0.5,0.8,0.8,1.4,0.9c0.3,0,0.5,0,0.8,0c0.9,0,1.9-0.3,2.7-0.8l1.7-1.3l-0.1,0.2c-0.1,0.2-0.8,1.8-0.9,2.1  c-0.1,0.8-0.4,1.6-0.8,2.3l-4,6.2c-0.4,0.6-0.5,1.3-0.4,2.1c0.1,0.4,0.2,0.6,0.7,0.6c0.2,0,0.5,0,0.7,0.1h0.6h0.1  c0.3,0,0.6,0.2,0.7,0.5c0,0,0,0,0,0c0,0.1,0,1.8,0,2s0.1,1.1,0.1,1.1c0,0.4,0.3,0.8,0.7,0.9c0.1,0.1,0,0.3-0.1,0.5  c-0.1,0.4-0.2,0.9-0.2,1.3c0,0,0,0,0,0.1c0,0.2,0.1,0.3,0.3,0.3c0.8,0.3,0.8,0.9,0.8,0.9l0,0c0.1,0.2-0.4,1.2-0.7,1.8  c-0.5,0.8-0.3,3.1-0.3,3.2c0.3,1.1,2.4,1.6,2.5,1.6c2.1,0.1,3.6,0.3,3.6,0.3h0.6l-0.2,0.2l-3.8,3.2c0,0-4.4,4-7.9,4h-0.2l-1.1-0.1  l-1-0.1h-0.2c-0.8-0.2-1.6-0.3-2.4-0.3c-2.3,0-3.8-0.9-3.9-2.5c-0.1-0.6-0.1-1.2,0.1-1.8c0.1-0.1,1.1-1.2,1.1-1.7  c-0.1-0.5-0.3-0.9-0.6-1.3l0,0l0,0c-0.2,0.1-0.5,0-0.6-0.2C236.1,108.6,236.2,108.1,236.5,107.8L236.5,107.8z M288.6,96.4  c-0.2,3.4-1.7,4.7-2.1,5l0,0l0,0c-0.1,0.1-0.2,0.1-0.2,0.2c-0.4,0.4-0.8,0.6-1.2,0.9l-0.3,0.2l-0.3,0.2c-0.3-0.1-0.7-0.3-0.9-0.6  c0.4-0.6,0.5-1.3,0.4-2c-0.2-0.4-0.4-0.7-0.6-1l-0.2-0.3c-0.1-0.3-0.1-0.5-0.1-0.8c0-0.7-0.2-1.3-0.4-1.9c-0.6-0.8-1.3-1.4-2.2-1.9  c-0.4-0.1-0.7-0.1-1.1-0.1c-0.2,0-0.5,0-0.6,0c-0.2-1.5-0.8-2.9-1.7-4.1c-0.5-0.3-1.1-0.4-1.7-0.3c-0.4,0.1-1.4,0.2-1.7-0.2  l-0.1-0.1c0-0.1-0.1-0.1-0.1-0.2l-0.1-0.2v-0.1c0-0.1-1-3-1.3-3.9c-0.3-0.6-0.9-1.1-1.6-1.2c-0.7-0.2-1.3-0.5-1.9-0.8  c-0.2-0.3-0.3-0.7-0.3-1.1c0-0.7-0.3-1.3-0.7-1.9c-0.8-0.7-3.8-1-3.9-1s-0.3,0-0.5,0c0-0.1,0-0.2,0-0.2l0.1-0.9  c0.4,0.1,0.7,0.1,1.1,0c0.9-0.2,1.8-0.3,2.7-0.2c0.6,0,1,0.5,1.5,1c0.1,0.2,0.3,0.3,0.4,0.5c0.4,0.4,0.7,0.9,0.9,1.5  c0.4,0.9,0.9,1.6,1.6,2.3c0.9,0.7,2,1.3,3.1,1.8l0.5,0.2c0.3,0.2,0.3,0.3,0.4,0.8c0.1,0.4,0.2,0.7,0.3,1.1c0.3,1,1,1.9,1.9,2.4  c0.7,0.4,1.4,0.6,2.1,0.9c0.7,0.2,1.4,0.5,2,0.8c0.3,0.3,0.4,0.7,0.5,1.2c0,0.4,0.2,0.8,0.3,1.1c0.5,0.6,1,1.1,1.6,1.5  c0.3,0.2,0.6,0.5,0.9,0.8c0.3,0.3,0.5,0.7,0.6,1.1c0.1,0.3,0.1,0.4,0.2,0.4l0,0c0,0,0.1,0,0.1,0c0.2-0.2,0.1-0.8-0.1-1.6  c-0.3-0.5-0.7-0.9-1.1-1.2l-0.3-0.3c0.4-0.4,0.6-0.9,0.6-1.4c0-1.1-0.3-2.2-0.8-3.1c-0.5-0.8-1.2-1.4-2.1-1.8l-0.5-0.2  c-0.4-0.1-0.7-0.3-0.9-0.5c-0.5-0.5-1-2.8-1.1-4.5c0-0.9-0.6-1.7-1.4-2c-0.7-0.3-1.4-0.5-2.1-0.6c-0.7-0.2-1.5-0.4-2-0.6  c-1.3-0.6-2.5-1.3-3.6-2.2c-0.6-0.4-1.1-0.8-1.4-0.9c-0.9-0.5-4.7-1.2-5.5-0.9c-0.3,0.1-0.6,0.3-0.7,0.7c-0.1-0.1-0.2-0.3-0.3-0.3  c-0.3-0.2-0.7-0.4-1.1-0.5h-0.2c0.3-0.2,0.6-0.4,0.9-0.6c0.9-0.4,1.8-0.5,2.7-0.5c0.5,0,1,0,1.4-0.2h0.1l-0.1-0.1  c-0.3-0.1-0.7-0.2-1-0.3c-0.7,0-1.4,0-2.1,0.1c-0.4,0-0.8,0.1-0.9,0.1c-0.8,0.3-1.5,0.7-2.2,1.2c-0.3,0-0.7-0.1-1-0.1H259  c-0.4,0-0.9,0-1.3,0.1c-0.3,0.1-0.6,0.1-0.8,0.3c-0.2-0.3-0.3-0.7-0.2-1.1c0-0.4,0.1-0.7,0.4-1l0,0c0.4-0.4,0.9-0.8,1.4-1.2  c2-1,4.1-1.5,6.3-1.6c2.6-0.1,5.3,0,7.9,0.3c1.9,0.2,7.1,2.5,7.1,2.5c1.1,0.7,2.1,1.5,2.8,2.6c1,1,3.1,5.9,3.1,6  c1.3,4.4,1.5,5.1,1.6,5.2l0,0C288.2,90.1,288.6,93.3,288.6,96.4z M286.6,105.1C286.6,105.2,286.6,105.2,286.6,105.1l-0.2,0.7  c0,0.1-0.1,0.2-0.1,0.2c0,0,0,0,0,0.1l-0.1,0.3c-0.2,0.7-3.4,1.4-4.5,1.6h-0.7h-0.6H280c0-0.1,0-0.2,0-0.4l-0.1-0.6  c0.1,0,0.1-0.1,0.2-0.1c1.2,0,2.3-0.3,3.4-0.7l1.4-0.6c0.3-0.1,0.6-0.4,0.7-0.8c0-0.1,0-0.1,0-0.1c-0.1,0-0.2,0-0.4,0.1  c-0.8,0.3-3.4,1.2-3.5,1.2l-0.6,0.1h-0.9c-0.3,0-0.5-0.5-0.6-0.9c0.1-0.1,0.3-0.3,1.2-0.3h0.4c1.6-0.3,3.1-0.9,4.4-1.7  c0.2,0,0.4,0,0.7,0c0,0.1,0,0.3,0.1,0.4C286.6,104.1,286.7,104.7,286.6,105.1L286.6,105.1L286.6,105.1z M291.5,118.7L291.5,118.7  c-0.1,0.4-0.1,0.8-0.1,1.2c-0.4-0.4-0.8-0.6-1.4-0.6l-0.9-0.1h-0.9c-0.1-1.1-0.6-2.1-1.2-3c-0.4-0.4-0.9-0.8-1.4-1.2  c-0.2-0.2-0.4-0.3-0.6-0.5c-0.6-0.5-1.6-1.3-1.6-1.3c-0.5-0.6-0.5-1,0.1-2.1c0.3-0.9,0.4-1.8,0.5-2.8c0.4-0.1,0.7-0.2,1-0.2  c0,0.6,0.1,1.3,0.2,1.9c0,0.6,0,1.2-0.2,1.7c-0.1,0.2-0.1,0.5-0.1,0.7c0.5,0.7,1.1,1.2,1.8,1.7l0.4,0.2c0.7,0.3,1.4,0.7,2.1,1.1  c0.5,0.4,0.9,0.8,1.3,1.2c0.2,0.3,0.5,0.5,0.8,0.8c0.2,0.2,0.4,0.5,0.5,0.7L291.5,118.7z M284.5,115.9v-0.2h0.1l1.2,0.9l1,1  c0.3,0.3,0.4,0.6,0.5,1v0.7h-0.2l-1.4-0.1l0,0c0,0-0.1,0.1-0.3,0l0,0c-0.4,0-0.8-0.3-0.9-0.7l0.1-1.1l0.1-0.5l0,0L284.5,115.9z   M284,92.8c-0.1,0.3-0.2,0.6-0.3,0.8c-0.2-0.2-0.4-0.4-0.5-0.7c-0.1-0.2-0.1-0.4-0.2-0.6c-0.1-0.8-0.6-1.5-1.2-2  c-0.7-0.5-1.5-0.8-2.3-1c-0.7-0.2-1.5-0.5-2.1-0.8c-0.4-0.6-0.7-1.3-0.9-2c-0.1-0.5-0.3-1.1-0.5-1.6c-0.5-0.7-1.2-1.2-2-1.2  l-0.5-0.1c-1.5-0.8-2.7-2.1-3.3-3.7c-1-2.3-2.1-2.5-2.7-2.6h0c-0.9,0-1.9,0-2.8,0.1l-0.8,0.1c-0.2,0-0.3-0.1-0.5-0.2  c0.1-0.5,0.4-1.2,1-1.2c1.6-0.1,3.1,0.3,4.5,1.1c0.4,0.2,1,0.6,1.5,0.9c1.6,1.1,3.4,2,5.2,2.7h0.1c1.8,0.5,2.6,0.7,2.8,1.5  c0.1,0.4,0.2,0.8,0.2,1.2c0.1,1.1,0.3,2.2,0.8,3.2c0.5,0.6,1.1,1.1,1.8,1.5c0.8,0.4,1.4,1,2,1.7C283.7,90.6,284,91.7,284,92.8  L284,92.8z M278.9,103.5c-0.1-0.3-0.3-0.7-0.5-1c-0.4-0.6-0.9-1.1-1.5-1.4c-0.3-0.2-0.7-0.3-1-0.4c0-0.1,0-0.2,0-0.2l-0.1-0.1  c-0.2-0.2-0.2-0.2-0.1-0.7v-1.2c0-0.2,0-0.3-0.1-0.5l0.5-0.1c0.7-0.2,1.3-0.7,1.7-1.3c0.2-0.4,0.4-0.9,0.5-1.3  c0.4-0.1,0.7-0.2,1.1-0.1c0.7,0.2,1.4,0.6,1.9,1.2c0.2,0.4,0.3,0.7,0.4,1.1c0,0.1,0.1,0.3,0.1,0.4l-2,0.2l-1.2,0.3l-1.4,0.6  l0.4,0.4l0,0l0,0c0.1,0,1.4-0.2,1.5-0.2c1-0.3,2.2-0.4,3.2-0.2l0,0c0,0,0.1,0,0.1,0.1l0.1,0.2c0.2,0.3,0.4,0.6,0.5,1  c-0.1,0.5-0.3,1.1-0.6,1.5c-0.3,0.2-0.7,0.3-1.1,0.3l-0.8-0.1l-0.5-0.1c-0.1-0.1-0.3-0.1-0.4-0.2c-0.2-0.1-0.3-0.1-0.5-0.2  c-0.5-0.4-0.5-0.4-0.6-0.4l-0.7-0.2l-0.7-0.1l0.4,0.5l0.4,0.2l0.4,0.1l0.6,0.5l0.6,0.4l0.4,0.2l0.5,0.2l0.9,0.1l1.1-0.1  c0.4,0.1,0.8,0.2,0.8,0.3l0.1,0.3l-0.2,0.1c-0.9,0.5-2,0.7-3.1,0.7h-0.4L278.9,103.5L278.9,103.5z M274,100.1  c-0.4-0.2-0.8-0.5-1.2-0.8l-0.1-0.1c-0.4-0.4-0.9-0.8-1.5-1h-0.2l0,0c-0.3-0.3-0.7-0.8-0.6-1.1c0-0.3,0.2-0.6,0.5-0.8  c0.5-0.1,0.9-0.1,1.4-0.1l0,0c0.4,0.2,1.2,0.7,1.2,0.7c0.5,0.3,0.9,0.7,1,1.2c0.1,0.7,0,1.4-0.2,2L274,100.1z M271.9,88.6  c-0.5,0.1-1.2,0.2-1.5-0.1c-0.3-0.3-0.5-0.5-0.7-0.8c-0.2-0.2-0.3-0.5-0.5-0.7c-0.3-0.3-0.7-0.5-1.1-0.7c-0.2-0.5-0.5-0.9-0.9-1.3  c-0.5-0.5-1-0.9-1.6-1.3l-0.6-0.4c-0.8-0.7-1.8-1.2-2.8-1.5c0.2-0.7,0.4-1.2,0.5-1.7c0.3,0.1,0.7,0.1,1,0.1c1.1,0,2.2,0.3,3.2,0.9  c0.1,0.3,0.2,0.7,0.2,1.1c0.1,0.7,0.2,1.5,0.5,1.7c0.4,0.2,0.7,0.4,1.1,0.5c0.9,0.3,1.7,0.7,2.3,1.4  C271.7,86.5,271.9,87.6,271.9,88.6L271.9,88.6z M277.6,94.3c-0.1,0.6-0.3,1.1-0.5,1.7c-0.3,0.4-0.6,0.8-1.1,1  c-0.2,0.1-0.5,0.1-0.8,0.1c-0.2-0.3-0.4-0.4-0.7-0.5c-0.2-0.1-0.4-0.2-0.5-0.3c-0.2-0.2-0.6-0.4-0.9-0.6c0.4-0.4,0.7-0.8,0.8-1.3  c0.1-0.6,0.2-1.2,0.1-1.7v-0.1c0-0.4,0-0.8-0.1-1.2c0.5-0.5,1.2-0.7,1.9-0.6c0.8,0.2,1.5,1.9,1.8,2.8  C277.6,93.8,277.6,94.1,277.6,94.3L277.6,94.3z M264.5,83.7c0.6,0.5,1.2,1.1,1.8,1.7l0.1,0.1c0.1,0.1,0.2,0.2,0.2,0.4  c-0.5-0.1-1-0.2-1.5-0.2c-0.6,0-1.2,0.2-1.6,0.6l-0.1,0.1c-0.3-0.7-0.8-1.4-1.3-2c-0.6-0.6-0.5-0.9-0.5-0.9  c0.1-0.2,0.2-0.5,0.3-0.7C262.8,82.8,263.7,83.1,264.5,83.7z M263.4,88.7c0.1-0.5,0.1-1,0.1-1.5c0.3-0.3,0.6-0.6,1-0.8  c0.7-0.1,1.4-0.1,2.1,0.1c0.8,0.1,1.5,0.5,2.1,1c0.1,0.2,0.3,0.4,0.4,0.6c0.2,0.4,0.5,0.7,0.9,1c0.5,0.2,0.9,0.3,1.4,0.4l0.3,0.1  c0.3,0.1,0.7,0.2,0.9,0.5l0,0c0.3,0.9,0.5,1.8,0.5,2.8c0,0.5-0.2,1.1-0.4,1.6l-0.1,0.2c-0.1,0.2-0.1,0.3-0.2,0.3c0,0-0.1,0-0.1,0  c-0.1,0-0.3-0.1-0.4-0.2c-0.2-0.1-0.3-0.1-0.5-0.2c-0.3-0.1-0.6-0.1-0.9-0.1c0,0-1,0.2-1.3-0.3c-0.1-0.2-0.3-0.5-0.3-0.7  c-0.1-0.3-0.2-0.6-0.4-0.6c-0.1,0-0.2-0.1-0.2-0.1l0.1-0.1c0.3-0.3,0.4-0.7,0.5-1.1c0-0.5,0-1-0.1-1.5c-0.2-0.5-0.4-1-0.7-1.5  c-0.5-0.4-1.1-0.7-1.8-0.8l0,0c-0.1,0-0.1,0.1-0.1,0.1c0,0.2,0.8,0.7,0.9,0.8c0.5,0.4,0.9,0.9,1.1,1.6c0,0.6-0.1,1.2-0.3,1.7  c-0.5,0.2-1.1,0.3-1.6,0.2c-0.3-0.1-0.6-0.2-0.8-0.4c-0.2-0.1-0.5-0.2-0.7-0.3c-0.6-0.4-1.1-0.8-1.5-1.3  C263,89.6,263.2,89.1,263.4,88.7L263.4,88.7z M264.1,91.8c0.3,0.1,0.5,0.3,0.7,0.6c0,0,0.1,0.1,0.1,0.1c0.1,0.8,0.2,1.6,0.3,2.4  c0.1,0.3,0.1,0.5,0.2,0.7c0.1,0.3,0.2,0.6,0.2,0.9c0,0.4,0,0.8,0,1.2c-1.2,0-1.4-0.1-1.4-0.1c-0.4-1.6-0.7-3.1-0.8-4.7l-0.3-1.4  C263.4,91.5,263.7,91.7,264.1,91.8L264.1,91.8z M266.1,96l-0.1-0.2c-0.2-0.6-0.3-1.2-0.4-1.8c0-0.4,0-0.9-0.1-1.2  c0.2,0.1,0.4,0.2,0.6,0.3c0.2,0.1,0.4,0.2,0.6,0.3c0.1,0,0.2,0.1,0.2,0.1c0,0,0.1,0,0.1,0c0,0.1-0.1,0.3-0.1,0.4  c-0.1,0.4-0.2,0.8-0.1,1.2c0,0.5,0.1,1,0.2,1.4c0.1,0.2,0.2,0.6,0.2,0.9c-0.4,0-0.8,0.1-1,0.1C266.4,97,266.3,96.5,266.1,96z   M269,98.7L269,98.7c-0.1-0.2-0.3-0.5-0.3-0.8c0-0.1,0-0.2-0.1-0.3l0,0h-0.1c-0.4-0.3-0.6-0.7-0.6-1.1c0-0.3-0.1-0.7-0.1-1  c-0.1-0.5-0.2-1-0.1-1.1c0.1-0.2,0.3-0.3,0.5-0.4c0.2,0.2,0.3,0.3,0.5,0.5l0.1,0.2c0.2,0.4,0.6,0.7,1.1,0.8h0.1  c0.4,0,0.8,0.1,1.2,0.2c-0.3,0-0.6,0.1-0.8,0.2c-0.3,0.3-0.6,0.7-0.7,1.2c0,0.4,0,0.8,0.1,1.2v0.1c0,0.1,0.1,0.3,0.2,0.4  c-0.2,0.2-0.4,0.3-0.6,0.5C269.2,99.1,269,98.9,269,98.7L269,98.7z M291.7,112C291.7,112,291.7,112,291.7,112h-0.2  c-2.4,0.5-3.2,0.2-3.4-0.2c-0.1-0.2-0.1-0.5,0-0.7c0.1,0,0.2-0.1,0.7-1.8c0.2-0.5-0.3-1.2-0.4-1.3c-0.4-0.5-0.7-1-1.2-1.4l0.1-0.1  l0,0c0.3,0,1.1-0.2,1.1-0.2c1.7-0.2,3.2-0.2,3.6,2.1C291.8,109.6,291.7,110.8,291.7,112z M255.7,75.2l-0.8,1.3c0,0-0.1,0.2-0.2,0.4  c-0.2,0.1-0.3,0.1-0.5,0c-0.6-0.5-1.2-1-1.7-1.5c-0.1-0.1-0.1-0.1-0.2-0.2c0.1-0.1,0.3-0.1,0.5-0.2h0.2c0.6,0.4,1.3,0.5,2,0.3  l0.9-0.1L255.7,75.2z M252.3,74.2c-0.2,0.1-0.4,0.2-0.6,0.3l-0.1-0.1c-0.7-0.4-1.6-0.5-2.4-0.2c-0.3,0.1-0.6,0.3-0.8,0.4  c-0.2,0-0.3-0.1-0.4-0.2l-0.1-0.1c-0.4-0.4-0.8-0.8-0.9-0.9c-0.3-0.2-0.7-0.3-1.1-0.4l0.1-0.2l0.3-0.4c0.3-0.4,0.6-0.7,0.9-1h0.1  c0.3-0.2,0.6-0.3,1-0.3l0,0l1.8,0.1c0,0,1.2,0,1.4,1l0.6,1.7C252.1,74,252.2,74.1,252.3,74.2L252.3,74.2z M245.3,73.7  c0.5,0,0.9,0.2,1.3,0.5c0.4,0.3,0.7,0.6,1,0.9c-0.5,0.4-1,0.8-1.5,1.2c-0.1,0.1-0.3,0.3-0.5,0.5c-1.1-0.2-2.3,0.1-3.1,0.8  c-0.6,0.8-1.7,1-2.6,0.7l1-0.8c0.5-0.5,1-1.1,1.4-1.7c0.6-0.7,1.4-1.3,2.1-1.8L245.3,73.7z M254.3,109h-0.2c-1.5,0-2.4-0.4-2.9-1.1  c-0.4-0.9-0.4-1.9,0-2.8l0.5-1.2c0.1-0.2,0.2-0.2,0.4-0.2c0.1,0,0.1,0,0.2,0h0.1c0.2,0,0.3-0.1,0.4-0.2s-0.2-0.6-0.2-0.6  c-0.2-0.2-0.4-0.6-0.4-0.9c0-0.2,0.1-0.5,0.3-0.6l0,0l0,0c0,0,0-0.1,0-0.1c-0.1,0-0.2,0-0.3,0l0,0c-0.6,0.4-0.9,0.1-0.9,0.1  c-0.1-0.1-0.1-0.3-0.1-0.5c0-0.2,0.1-0.3,0.3-0.4l0,0c0,0,0.3-0.3,1.5,0c0.3,0,0.7,0,1,0c0.3,0,0.5-0.2,0.5-0.5l0,0l0,0  c-0.3-0.2-0.4-0.3-0.5-0.4c-0.1-0.1-0.2-0.1-0.3-0.2c-0.1,0-0.1,0-0.2,0.1s-0.4,0.5-1.1,0c-0.5-0.5-0.7-0.5-0.8-0.5H251  c-0.3,0-0.4,0-0.5-0.4l-0.1-2.4v-0.7l1,0.1c0.3,0.1,0.7,0.2,1,0.2l0,0c0.2,0,0.4-0.1,0.6-0.3c0.3-0.3,0.4-0.7,0.1-1.1v-0.1  l-0.1,0.1c-0.3,0.6-1.5,0.5-1.7,0.5c-0.8-0.5-1.7-0.6-2.5-0.4c-0.5,0.1-0.9,0-1.1-0.2s0.1-1,0.1-1l1.6-3c0,0,2-2.7,3-4.5l0,0  c0.1-0.9,0.3-1.8,0.6-2.6c0.4-0.5,0.8-1,1-1.7c1-3.4,1.2-4.1,1.2-4.1c0.1-0.5,0.8-1.7,1.6-1.8h0.3c0.5-0.1,1.1-0.1,1.6-0.1h0.3  c0.9,0.1,1.7,0.3,2.5,0.7c1.2,0.3,0.4,3.3,0.4,3.3l-1.7,3.7c-0.2,0.3,0.5,0.9,0.5,1s1,1.2,1,1.3c0.5,0.6,0.8,1.4,0.7,2.1  c0.1,0.6,0,1.1-0.3,1.6c-0.1,0.2-0.2,0.4-0.3,0.5l0,0c0,0.8,0.1,1.6,0.4,2.3l0,0c-0.6,0.5-1.4,0.9-2.1,1.2l-0.8,0.3  c-1.4,0.5-1.9,0.7-1.9,0.9c0,0,0,0.1,0,0.1c0.2,0.1,0.4,0.1,0.6,0.1c0.2,0,0.5,0,0.7-0.1c0.6-0.2,1.2-0.4,1.8-0.6  c0.3-0.1,1.3-0.5,1.8-0.8c0.1,0.4,0.2,0.8,0.2,1.1c-0.2,0.1-0.4,0.2-0.6,0.3s-0.8,0.4-1.2,0.6l-0.4,0.2c-0.2,0.1-0.9,0.5-0.9,0.6  s0,0.1,0,0.1c0.2,0.1,0.3,0.2,0.5,0.2l0,0c0.5-0.1,0.9-0.3,1.3-0.5l0.5-0.2l0.9-0.4v0.1c0,0.9,0.1,1.9,0.3,2.8c0.2,0.2,1.5,0.2,4,0  c0.7,0.3,1.2,0.9,1.3,1.7l-0.2,0.7c-0.4,0.9-1.9,5-1.9,5s-0.1,0.2-0.1,0.3c-0.2,0.8-0.9,1.3-1.7,1.4c-1.1,0.4-2.3,0.7-3.4,0.9  c-1.4,0.3-2.8,0.5-4.1,0.6L254.3,109z M259.9,109.9c0-0.1,0-0.1,0-0.2c0-0.1,0.6-0.3,1.1-0.3c5.2-0.9,6-2.3,6.3-2.8  c0,0,0-0.1,0.1-0.1c1-2.1,1.8-4.2,2.6-6.4c0.3-0.3,0.6-0.6,1-0.8c0.5-0.2,1,0.4,1,0.4l0,0c0.2,0.2,1.3,1,1.3,1  c0.4,0.2,0.9,0.4,1.3,0.5c0.3,0.1,1.1,0.4,1.5,0.5l0.4,0.2c0.3,0.1,0.6,0.3,0.8,0.6c0,0.1,0.1,0.1,0.1,0.2c0,0.1,0.1,0.3,0.1,0.4  l-0.3,0.3l-4.4,3.2c-3.5,2.7-8,8.5-8.1,8.6l-2.6,3.2l-0.3,0.5l-0.3-1.8l-1.1-5C260.3,111.3,260.1,110.5,259.9,109.9L259.9,109.9z   M292.3,117.4c-0.4-0.3-0.7-0.6-1-1c-0.8-0.9-1.8-1.6-2.8-2.1l-0.3-0.2c-1-0.5-1.9-0.9-2.2-1.7c-0.1-0.3-0.1-0.6,0.1-0.9  c0.3-0.5,0.3-1,0.2-1.5c-0.2-0.8-0.4-1.5-0.5-1.9c0.2-0.1,0.5-0.2,0.7-0.4c0.2-0.1,0.3-0.2,0.4-0.4c0.1,0.2,0.3,0.5,0.3,0.6l0,0  c0.4,0.3,0.7,0.8,0.9,1.2l-0.9,2.1c-0.2,0.7-0.1,1.2,0.1,1.5c0.2,0.2,0.5,0.2,0.8,0.2l4.4,0.3c0.5,0.8,0.8,1.7,0.7,2.7l0,0  c0,0,0,0.2-0.6,1L292.3,117.4z"></path>	<path class="st2" d="M241,95c0-0.3,0-0.7,0-1v-0.2c0-0.1,0-0.2,0.1-0.2c0.1,0,0.2,0,0.4,0h0.2c0.2,0,0.3,0,0.5,0  c0.2,0,0.5,0.1,0.7,0.1c0.1,0,0.1,0.1,0.2,0.1c0.1,0.1,0.2,0.1,0.3,0.2l0.2,0.1c0.2,0.1,0.5,0.2,0.7,0.3c0.2,0.2,0.4,0.4,0.6,0.7  c0.1,0.1,0.2,0.3,0.3,0.4c0.1,0.1,0.3,0.2,0.4,0.2c0.1,0,0.3,0,0.4,0h0.1l-0.1-0.1c0-0.1-0.4-0.6-0.7-1.1l-0.5-0.8  c-0.1-0.1-0.3-0.2-0.4-0.2l-0.3-0.1l-0.3-0.1l-0.4-0.2c-0.1-0.1-0.3-0.1-0.4-0.2l-0.2-0.1c-0.3-0.1-0.6-0.3-0.9-0.3  c-0.6,0-1.2,0-1.8,0.1c-0.1,0.1-0.2,0.2-0.2,0.3c0,0.1,0.1,0.3,0.1,0.4c0,0.1,0,0.1,0.1,0.2c0,0.1,0.1,0.3,0.1,0.4  c0,0.4,0,0.7,0,1.1c0,0.2-0.1,0.4-0.1,0.6l0,0c-0.1,0.2-0.2,0.3-0.3,0.4c-0.2,0.2-0.2,0.3-0.2,0.3l0,0h0c0.3,0,0.6,0,0.9-0.2  C240.7,95.8,240.9,95.4,241,95z"></path>	<path class="st3" d="M244.3,95.8l-0.1-0.1c-0.1-0.1-0.2-0.2-0.3-0.2l-0.2-0.1l-0.1-0.1l-0.2-0.1h-0.1c0,0-0.3-0.2-0.4-0.2l0,0  l-0.3-0.1c0,0,0,0-0.1,0c0,0-0.1-0.1-0.1-0.1c-0.2-0.1-0.4-0.1-0.6-0.2l0,0c-0.1,0-0.3,0.1-0.4,0.2c0,0.1,0,0.1,0,0.2  c0,0.1,0.1,0.2,0.1,0.2l0.2,0.1c0,0.2-0.1,0.3-0.1,0.5c0,0.2,0,0.4,0,0.6c0.1,0.2,0.2,0.4,0.3,0.5c0.1,0.1,0.2,0.1,0.3,0.2l0,0  c0.1,0,0.1,0,0.1-0.1c0-0.1,0-0.2,0-0.3c0-0.2-0.1-0.3-0.1-0.5v-0.1c0-0.2,0.1-0.3,0.2-0.5c0.1,0,0.1,0,0.1,0.1  c0.2,0.1,0.4,0.3,0.6,0.5c0,0,0.1,0.1,0.1,0.1c0.1,0.1,0.2,0.2,0.2,0.3c0,0.2-0.2,0.4-0.4,0.4c-0.2,0.1-0.3,0.2-0.5,0.2  c-0.2,0-0.4,0.1-0.6,0.1h-0.4l0,0c0,0-0.2,0.1-0.2,0.2s0.1,0.2,0.1,0.2h0.5h0.3h0.5c0.2,0,0.4-0.1,0.5-0.2c0.3-0.1,0.6-0.3,0.9-0.5  c0.1-0.1,0.1-0.1,0.2-0.2c0-0.1,0-0.2,0-0.3C244.5,96.1,244.4,95.9,244.3,95.8z"></path>	<path class="st3" d="M254.5,85.4L254.5,85.4c0.6,0.1,1.1,0.2,1.6,0.4c0.2,0.1,0.5,0.1,0.7,0.3c0.3,0.3,0.6,0.5,0.9,0.8  c0.1,0.1,0.2,0.2,0.3,0.2c0.1,0.1,0.2,0.1,0.2,0.3s0,0.1,0.1,0.1c0.1,0,0.1,0,0.2,0c0.2,0,0.3,0,0.4-0.2c0.1-0.1,0.1-0.2,0-0.2  c-0.1-0.2-0.1-0.2-0.1-0.2c-0.1-0.1-0.2-0.2-0.2-0.3c-0.2-0.2-0.4-0.4-0.6-0.6l-0.2-0.2c-0.2-0.2-0.5-0.4-0.8-0.6l-0.1-0.1  c-0.7-0.4-1.5-0.7-2.3-0.7l0,0c-0.4,0.1-0.7,0.2-1,0.4l0,0l0.1,0.4l0,0C254.1,85.4,254.3,85.4,254.5,85.4z"></path>	<path class="st3" d="M258.5,89h0.2c0.1,0,0.2,0,0.2-0.1c0,0,0-0.1,0.2-0.2c0,0,0-0.1,0-0.1c0,0,0,0,0,0c-0.5-0.2-1-0.2-1.4-0.1  c-0.1,0-0.3,0.1-0.5,0.1c-0.2,0-0.5,0.1-0.7,0.2c-0.1,0-0.2,0.1-0.3,0.1c-0.3,0.1-0.5,0.2-0.5,0.4c0,0.1,0,0.1,0.1,0.1  c0.1,0,0.1,0,0.2,0c0.3,0,0.5-0.1,0.8-0.2l0.2-0.1c0.1,0,0.3-0.1,0.4-0.1l0.5-0.1C258.1,89,258.3,89,258.5,89z"></path>	<path class="st2" d="M256,87c0.4,0.2,0.7,0.4,1,0.7l0,0c-0.1,0.1-0.3,0.2-0.6,0.3c-0.5,0.2-0.6,0.3-0.7,0.4l0,0l0,0c0,0,0,0,0.1,0  l0,0c0.5-0.1,0.9-0.2,1.4-0.4c0.1-0.1,0.3-0.3,0.4-0.4l0,0l-0.1-0.3l0,0c-0.1-0.1-0.1-0.2-0.2-0.4c-0.4-0.4-0.9-0.6-1.5-0.8  c0,0-1.6-0.3-1.8-0.1s0,0.6,0,0.6v0.1h0.1h0.5c0,0.2,0,0.3,0,0.5c0,0,0,0.1,0,0.1c0,0.2,0.1,0.4,0.2,0.5c0,0,0,0.1,0.1,0.1  c0.1,0.1,0.1,0.2,0.3,0.2h0.1c0.2,0,0.2-0.2,0.2-0.5c0-0.1,0-0.2,0-0.3c0-0.2,0.1-0.3,0.2-0.5L256,87z"></path></g></svg>