<?xml version="1.0" encoding="utf-8"?>
<!-- Generator: Adobe Illustrator 24.0.0, SVG Export Plug-In . SVG Version: 6.00 Build 0)  -->
<svg version="1.1" id="Ebene_1" xmlns="http://www.w3.org/2000/svg" xmlns:xlink="http://www.w3.org/1999/xlink" x="0px" y="0px"
	 viewBox="0 0 440.1 125" style="enable-background:new 0 0 440.1 125;" xml:space="preserve">
<style type="text/css">
	.st0{fill:#FFFFFF;}
</style>
<rect x="217.3" y="75.4" class="st0" width="222.8" height="6.3"/>
<path d="M385.3,49.8h10.6v30.2h5.7V49.8H412V45h-26.8V49.8z"/>
<path d="M121.4,35.9h5.7V5.7h10.4V1h-26.8v4.7h10.6L121.4,35.9z"/>
<path d="M236.3,33.5c2.3-1.6,3.5-4.1,3.5-7.5c0.1-2.2-0.6-4.4-2.1-6.1c-1.6-1.6-3.7-2.7-5.9-2.9v-0.1c1.6-0.5,3.1-1.4,4.1-2.7
	c1-1.3,1.5-2.9,1.5-4.6c0.2-2.5-1-5-3-6.5c-2-1.4-5-2.2-9.1-2.2h-13.7v34.9h13.8C230.3,35.9,234,35.1,236.3,33.5z M217,5.5h7.5
	c1.9-0.1,3.9,0.3,5.6,1.2c1.2,0.8,1.9,2.2,1.8,3.7c0.1,1.4-0.5,2.8-1.6,3.8c-1.1,0.8-2.8,1.2-5.2,1.2H217L217,5.5L217,5.5z
	 M217,19.7h9.3c2.6,0,4.5,0.5,5.8,1.5c1.3,1.1,2,2.7,1.9,4.4c0.1,1.7-0.6,3.3-1.9,4.3c-1.7,1.1-3.8,1.6-5.8,1.4H217L217,19.7z"/>
<path d="M178.3,7.9l0.2-0.1l17.7,28h7.1V1h-5.6v27.5l-0.2,0.1L180,1h-7.1v34.9h5.6L178.3,7.9z"/>
<path d="M165.6,31.2h-17.5V19.7H163v-4.6h-14.9V5.6h17.2V1h-22.8v34.9h23.1V31.2z"/>
<path d="M231.6,79.9h12.6c6.1,0,10.8-1.5,14.2-4.5c3.3-3,5-7.3,5-12.8c0-5.8-1.7-10.2-5-13.2c-3.3-3-8.2-4.5-14.7-4.5h-12.1
	L231.6,79.9L231.6,79.9z M237.3,49.7h6.2c4.5,0,7.9,1.1,10.2,3.3s3.4,5.4,3.4,9.7c0,4.2-1.2,7.3-3.5,9.5c-2.3,2.1-5.7,3.2-10.2,3.2
	h-6.2L237.3,49.7L237.3,49.7z"/>
<path d="M374.6,65.8c0,3.8-0.7,6.5-2.2,8s-3.8,2.4-7.1,2.4c-3.4,0-5.7-0.8-7.1-2.4s-2.1-4.5-2.1-8.5V45.1h-5.7v21.8
	c0,4.9,1.2,8.4,3.6,10.7c2.4,2.3,6.2,3.4,11.3,3.4c5.1,0,8.9-1.1,11.3-3.4c2.4-2.3,3.6-5.9,3.6-10.7V45.1h-5.7L374.6,65.8
	L374.6,65.8z"/>
<path d="M422.6,75.3V63.8h15v-4.6h-15v-9.5h17.2V45H417v34.9h23.1v-4.7H422.6z"/>
<path d="M282.6,20.9h9.5c2.1,0,3.6,0.4,4.3,1.2s1.1,2.6,1.1,5.3c0,0.6,0,1.3,0,2c0,0.7,0,1,0,1c0,1.1,0.1,2.2,0.2,3.3
	c0.2,0.8,0.4,1.5,0.8,2.2h6.6c-0.7-0.8-1.3-1.7-1.5-2.8c-0.4-2-0.5-4-0.4-6v-1.9c0-2.4-0.5-4.1-1.4-5.1s-2.5-1.7-4.6-1.8l0-0.2
	c1.9-0.2,3.6-1.1,4.8-2.5c1.2-1.5,1.9-3.4,1.8-5.4c0.1-2.7-1.1-5.3-3.4-6.9C298.3,1.8,295,1,290.7,1H277v34.9h5.6L282.6,20.9
	L282.6,20.9z M282.6,5.6h8.5c1.9-0.1,3.8,0.4,5.4,1.4c1.2,0.9,2,2.3,1.9,3.8c0.1,1.6-0.6,3.2-1.8,4.2c-1.6,1-3.5,1.5-5.4,1.4h-8.5
	L282.6,5.6z"/>
<path d="M315.5,33.3c1.4,1.2,2.9,2.1,4.7,2.7c1.8,0.6,3.7,0.9,5.7,0.9c2.5,0.1,5-0.5,7.3-1.6c2-1.1,3.6-2.8,4.6-4.8l0.4,5.4h4.2
	V19.1h-11.8v4h6.2c0,5.2-4.1,9.4-9.3,9.4c-0.1,0-0.2,0-0.3,0c-3.2,0.1-6.3-1.4-8.3-3.9c-2.2-2.9-3.4-6.4-3.2-10.1
	c0-4.2,1-7.6,3.2-10.1c2.1-2.5,5.2-3.9,8.4-3.8c2.1-0.1,4.2,0.6,5.9,1.8c1.7,1.3,2.8,3.2,3.3,5.2h5.8c-0.6-3.3-2.4-6.4-5.1-8.4
	c-2.8-2.1-6.2-3.3-9.7-3.2c-2.9-0.1-5.8,0.6-8.4,1.8c-2.5,1.2-4.6,3.1-6.2,5.4c-1.1,1.6-2,3.3-2.6,5.2c-0.6,2-0.9,4-0.9,6.1
	c0,2.9,0.5,5.7,1.6,8.3C311.9,29.3,313.5,31.5,315.5,33.3z"/>
<rect x="269.9" y="45" width="5.8" height="34.9"/>
<path d="M269.7,31.2h-17.5V19.7h15v-4.6h-15V5.6h17.3V1h-22.8v34.9h23.1V31.2z"/>
<path d="M6.3,33.3c1.4,1.2,2.9,2.1,4.7,2.7c1.8,0.6,3.7,0.9,5.7,0.9c2.5,0.1,5-0.5,7.3-1.6c2-1.1,3.6-2.8,4.6-4.8l0.4,5.4h4.2V19.1
	H21.3v4h6.2c0,2.5-1,5-2.8,6.8c-1.8,1.7-4.3,2.7-6.8,2.6c-3.2,0.1-6.3-1.4-8.3-3.9c-2.2-2.9-3.4-6.4-3.2-10.1c0-4.2,1-7.6,3.2-10.1
	c2.1-2.5,5.2-3.9,8.4-3.8c2.1-0.1,4.2,0.6,5.9,1.8c1.7,1.3,2.8,3.2,3.3,5.2H33c-0.6-3.4-2.4-6.4-5.1-8.4C25,1,21.6-0.1,18.1,0
	c-2.9-0.1-5.8,0.6-8.4,1.8C7.2,3,5,4.9,3.4,7.1c-1.1,1.6-2,3.3-2.6,5.2c-0.6,2-0.9,4-0.8,6.1c0,2.9,0.5,5.7,1.6,8.3
	C2.7,29.3,4.3,31.5,6.3,33.3z"/>
<path d="M260.3,107.8h15v-4.6h-15v-9.5h17.3v-4.6h-22.8V124h23.1v-4.7h-17.5V107.8z"/>
<path d="M245.3,92c-2.3-1.9-5.6-2.9-9.8-2.9h-13.3V124h5.6v-12.7h7.6c4.3,0,7.5-1,9.8-2.9s3.4-4.7,3.4-8.3
	C248.9,97,247.6,94,245.3,92z M240.8,105.1c-1.3,1.1-3.3,1.6-6,1.6h-7.1v-13h7.1c2.7,0,4.6,0.5,6,1.6c1.4,1.2,2.1,3,2,4.9
	C242.9,102,242.2,103.8,240.8,105.1L240.8,105.1z"/>
<path d="M340.7,47.8c-2.3-1.9-5.6-2.8-9.8-2.8l-13.3,0.2l0.4,34.9l5.6-0.1l-0.2-12.7l7.6-0.1c4.3,0,7.5-1,9.8-3
	c2.3-2,3.4-4.8,3.3-8.4C344.4,52.8,343.1,49.8,340.7,47.8z M336.5,61c-1.3,1.1-3.3,1.7-5.9,1.7l-7.1,0.1l-0.2-13l7.1-0.1
	c2.6,0,4.6,0.5,6,1.5c1.4,1.2,2.2,3,2,4.8C338.5,57.9,337.8,59.7,336.5,61L336.5,61z"/>
<path d="M311.3,115.2v-1.9c0-2.4-0.5-4.1-1.4-5.1c-0.9-1.1-2.5-1.7-4.6-1.8l0-0.2c1.9-0.2,3.6-1.1,4.8-2.5c1.2-1.5,1.9-3.4,1.8-5.4
	c0.2-2.7-1.1-5.3-3.3-6.9c-2.2-1.6-5.5-2.3-9.9-2.3h-13.7V124h5.6v-15h9.5c2.1,0,3.6,0.4,4.3,1.2s1.1,2.6,1.1,5.3c0,0.6,0,1.3,0,2
	s0,1,0,1c0,1.1,0.1,2.2,0.2,3.3c0.2,0.8,0.4,1.5,0.8,2.2h6.6c-0.7-0.8-1.3-1.7-1.5-2.8C311.4,119.3,311.2,117.2,311.3,115.2z
	 M304.6,103c-1.6,1-3.5,1.5-5.4,1.4h-8.5V93.7h8.5c1.9-0.1,3.8,0.4,5.4,1.4c1.2,0.9,2,2.3,1.9,3.8C306.5,100.5,305.8,102,304.6,103
	L304.6,103z"/>
<path d="M80.6,7.9l0.3-0.1l17.7,28h7.2V1h-5.6v27.5l-0.1,0.1L82.3,1h-7.1v34.9h5.6L80.6,7.9z"/>
<path d="M286.2,77.8c2.6,2.1,6.1,3.2,10.4,3.2c4.5,0,8-1,10.6-3.1c2.6-2,4-5.1,3.9-8.3c0.1-2.2-0.8-4.4-2.4-5.9
	c-1.6-1.4-4.8-2.8-9.5-4c-0.2-0.1-0.6-0.2-1-0.3c-6.1-1.6-9.1-3.6-9.1-6c0-1.5,0.8-3,2.1-3.8c1.7-1,3.7-1.5,5.7-1.4
	c2.1-0.1,4.2,0.5,6,1.7c1.5,1.1,2.3,2.8,2.4,4.6h5.8c-0.2-3.1-1.6-5.9-4.1-7.8c-2.4-1.8-5.7-2.8-9.8-2.8c-4.2,0-7.5,0.9-10,2.8
	c-2.4,1.8-3.8,4.6-3.7,7.6c-0.1,2,0.7,4,2.1,5.4c1.4,1.4,3.8,2.5,7.2,3.6c1,0.3,2.5,0.7,4.3,1.2c3.5,0.9,5.7,1.7,6.7,2.4
	c0.6,0.4,1,1,1.4,1.6c0.3,0.6,0.5,1.3,0.5,2.1c0.1,1.7-0.8,3.4-2.2,4.3c-1.9,1.1-4,1.7-6.2,1.5c-2.4,0.1-4.7-0.5-6.7-1.9
	c-1.6-1.4-2.5-3.4-2.4-5.5l-6,0C282.1,72.5,283.6,75.7,286.2,77.8z"/>
<path d="M216.8,89.1h-6.7l-8.2,13.2l-8.2-13.2H187l11.8,17.1L186.6,124h6.5l8.7-13.9l8.7,13.9h6.5l-12.2-17.8L216.8,89.1z"/>
<path d="M370.5,107.8c-1.6-1.4-4.8-2.8-9.5-4c-0.2-0.1-0.6-0.2-1-0.3c-6.1-1.6-9.1-3.6-9.1-6c0-1.5,0.8-3,2.1-3.8
	c1.7-1,3.7-1.5,5.7-1.4c2.1-0.1,4.2,0.5,6,1.7c1.5,1.1,2.3,2.8,2.4,4.6h5.8c-0.2-3.1-1.6-5.9-4.1-7.8c-2.4-1.8-5.7-2.8-9.8-2.8
	c-4.2,0-7.5,0.9-10,2.8c-2.4,1.8-3.8,4.6-3.7,7.6c-0.1,2,0.7,4,2.1,5.4c1.4,1.4,3.8,2.5,7.2,3.6c1,0.3,2.5,0.7,4.3,1.2
	c3.5,0.9,5.7,1.7,6.7,2.4c0.6,0.4,1,1,1.4,1.6c0.3,0.6,0.5,1.3,0.5,2.1c0.1,1.7-0.8,3.4-2.2,4.3c-1.9,1.1-4,1.7-6.2,1.5
	c-2.4,0.1-4.7-0.5-6.7-1.9c-1.6-1.4-2.5-3.4-2.4-5.5l-6,0c0,3.4,1.5,6.6,4.2,8.7c2.6,2.1,6.1,3.2,10.4,3.2c4.5,0,8-1,10.6-3.1
	c2.6-2,4-5.1,3.9-8.3C373.1,111.4,372.2,109.3,370.5,107.8z"/>
<path d="M164.8,107.8h15v-4.6h-15v-9.5h17.3v-4.6h-22.8V124h23.1v-4.7h-17.5V107.8z"/>
<path d="M45.4,28.4h16.7l2.8,7.5h6.2L57,1h-6.7l-14,34.9h6.1L45.4,28.4z M53.7,6.4h0.2l6.5,17.4H47.1L53.7,6.4z"/>
<path d="M314.2,93.8h10.6V124h5.7V93.8H341v-4.7h-26.8V93.8z"/>
</svg>
