<?xml version="1.0" encoding="UTF-8" standalone="no"?>
<!-- Created with Inkscape (http://www.inkscape.org/) -->

<svg
   xmlns:dc="http://purl.org/dc/elements/1.1/"
   xmlns:cc="http://creativecommons.org/ns#"
   xmlns:rdf="http://www.w3.org/1999/02/22-rdf-syntax-ns#"
   xmlns:svg="http://www.w3.org/2000/svg"
   xmlns="http://www.w3.org/2000/svg"
   xmlns:sodipodi="http://sodipodi.sourceforge.net/DTD/sodipodi-0.dtd"
   xmlns:inkscape="http://www.inkscape.org/namespaces/inkscape"
   width="267.60172"
   height="33.890671"
   viewBox="0 0 70.802954 8.9669064"
   version="1.1"
   id="svg3439"
   inkscape:version="0.92.0 r15299"
   sodipodi:docname="mayer  brown.svg">
  <defs
     id="defs3433" />
  <sodipodi:namedview
     id="base"
     pagecolor="#ffffff"
     bordercolor="#666666"
     borderopacity="1.0"
     inkscape:pageopacity="0.0"
     inkscape:pageshadow="2"
     inkscape:zoom="3.377237"
     inkscape:cx="132.80086"
     inkscape:cy="15.945335"
     inkscape:document-units="mm"
     inkscape:current-layer="layer1"
     showgrid="false"
     fit-margin-top="0"
     fit-margin-left="0"
     fit-margin-right="0"
     fit-margin-bottom="0"
     units="px"
     inkscape:window-width="1280"
     inkscape:window-height="744"
     inkscape:window-x="-4"
     inkscape:window-y="-4"
     inkscape:window-maximized="1" />
  <metadata
     id="metadata3436">
    <rdf:RDF>
      <cc:Work
         rdf:about="">
        <dc:format>image/svg+xml</dc:format>
        <dc:type
           rdf:resource="http://purl.org/dc/dcmitype/StillImage" />
        <dc:title></dc:title>
      </cc:Work>
    </rdf:RDF>
  </metadata>
  <g
     inkscape:label="Layer 1"
     inkscape:groupmode="layer"
     id="layer1"
     transform="translate(57.815467,-140.30554)">
    <g
       id="g3502"
       transform="translate(0.26458139,-0.26457606)">
      <path
         d="m 2.8716951,146.74197 2.325862,-5.01615 0.966258,-3.5e-4 -3.217333,6.69784 h -0.140052 l -1.39206,-2.96122 -1.39170903,2.96122 h -0.149579 l -3.21486197,-6.69784 0.97296,3.5e-4 2.32621697,5.00697 0.999066,-2.12972 -1.339143,-2.87761 0.928158,3.6e-4 z"
         style="fill:#003c68;fill-opacity:1;fill-rule:nonzero;stroke:none;stroke-width:0.35277778"
         id="path1638"
         inkscape:connector-curvature="0" />
      <path
         d="m 7.1338491,141.62277 v 6.6414 h 0.878065 v -4.49298 l 4.3247019,4.60516 h 0.121708 v -6.65092 h -0.87771 v 4.58682 l -4.3250569,-4.68948 z"
         style="fill:#003c68;fill-opacity:1;fill-rule:nonzero;stroke:none;stroke-width:0.35277778"
         id="path1642"
         inkscape:connector-curvature="0" />
      <path
         d="m -52.126573,141.60975 -2.055283,4.2605 -2.064103,-4.2605 h -0.130881 l -1.438627,6.6548 h 0.915458 l 0.850194,-4.1476 1.802695,3.4999 h 0.121708 l 1.830564,-3.54612 0.906286,4.19382 h 0.896408 l -1.503538,-6.6548 z"
         style="fill:#003c68;fill-opacity:1;fill-rule:nonzero;stroke:none;stroke-width:0.35277778"
         id="path1646"
         inkscape:connector-curvature="0" />
      <path
         d="m -45.459179,146.01348 -1.045986,-2.52201 -1.046692,2.52201 z m 0.354894,0.85901 h -2.802466 l -0.578908,1.39206 h -0.981075 l 2.886427,-6.6548 h 0.130881 l 2.895953,6.6548 h -0.97155 z"
         style="fill:#003c68;fill-opacity:1;fill-rule:nonzero;stroke:none;stroke-width:0.35277778"
         id="path1650"
         inkscape:connector-curvature="0" />
      <path
         d="m -40.635578,145.94783 v 2.31669 h -0.887236 v -2.29799 l -2.223206,-4.2411 h 0.99942 l 1.662641,3.31646 1.672167,-3.31646 h 0.990247 z"
         style="fill:#003c68;fill-opacity:1;fill-rule:nonzero;stroke:none;stroke-width:0.35277778"
         id="path1654"
         inkscape:connector-curvature="0" />
      <path
         d="m -36.226385,142.58497 v 1.92441 h 2.083153 v 0.85019 h -2.083153 v 2.04576 h 2.849386 v 0.85937 h -3.736622 v -6.53909 h 3.736622 v 0.85936 z"
         style="fill:#003c68;fill-opacity:1;fill-rule:nonzero;stroke:none;stroke-width:0.35277778"
         id="path1658"
         inkscape:connector-curvature="0" />
      <path
         d="m -31.079782,144.8926 h 1.112663 c 0.747536,0 1.261179,-0.4766 1.261179,-1.14935 0,-0.68157 -0.513643,-1.14865 -1.261179,-1.14865 h -1.112663 z m 1.084792,0.85901 h -1.084792 v 2.51284 h -0.887588 v -6.53874 h 2.037645 c 1.335617,0 2.120548,0.98108 2.120548,2.01754 0,0.85019 -0.47625,1.59773 -1.326446,1.88701 l 1.587854,2.63419 h -1.008594 z"
         style="fill:#003c68;fill-opacity:1;fill-rule:nonzero;stroke:none;stroke-width:0.35277778"
         id="path1670"
         inkscape:connector-curvature="0" />
      <path
         d="m -18.285624,146.34975 c 0,-0.57962 -0.429684,-1.02764 -1.176867,-1.02764 h -1.389592 v 2.07362 h 1.389592 c 0.73801,0 1.176867,-0.46672 1.176867,-1.04598 m -2.566459,-3.75532 v 1.84961 h 1.053042 c 0.672748,0 1.083733,-0.42968 1.083733,-0.94368 0,-0.53199 -0.40146,-0.90593 -1.074208,-0.90593 z m 3.491442,3.79271 c 0,0.95285 -0.700968,1.87749 -2.036585,1.87749 h -2.342444 v -6.53909 h 2.006246 c 1.28905,0 1.914879,0.80362 1.914879,1.69121 0,0.54187 -0.23354,0.99907 -0.635354,1.29823 0.663223,0.28963 1.093258,0.88723 1.093258,1.67216"
         style="fill:#003c68;fill-opacity:1;fill-rule:nonzero;stroke:none;stroke-width:0.35277778"
         id="path1674"
         inkscape:connector-curvature="0" />
      <path
         d="m -4.7542689,144.99035 c 0,-1.33561 -0.999419,-2.50366 -2.466269,-2.50366 -1.475668,0 -2.456743,1.16805 -2.456743,2.50366 0,1.33597 0.981075,2.51319 2.456743,2.51319 1.46685,0 2.466269,-1.17722 2.466269,-2.51319 m -5.8289461,0 c 0,-1.81222 1.3264441,-3.38137 3.3626771,-3.38137 2.027061,0 3.353507,1.56915 3.353507,3.38137 0,1.82175 -1.326446,3.3909 -3.353507,3.3909 -2.036233,0 -3.3626771,-1.56915 -3.3626771,-3.3909"
         style="fill:#003c68;fill-opacity:1;fill-rule:nonzero;stroke:none;stroke-width:0.35277778"
         id="path1678"
         inkscape:connector-curvature="0" />
      <path
         d="m -15.165446,144.8926 h 1.11266 c 0.747538,0 1.261182,-0.4766 1.261182,-1.14935 0,-0.68157 -0.513644,-1.14865 -1.261182,-1.14865 h -1.11266 z m 1.084792,0.85901 h -1.084792 v 2.51284 h -0.88759 v -6.53874 h 2.037646 c 1.335969,0 2.120549,0.98108 2.120549,2.01754 0,0.85019 -0.47625,1.59773 -1.326447,1.88701 l 1.587852,2.63419 h -1.008591 z"
         style="fill:#003c68;fill-opacity:1;fill-rule:nonzero;stroke:none;stroke-width:0.35277778"
         id="path1682"
         inkscape:connector-curvature="0" />
      <path
         inkscape:connector-curvature="0"
         id="path1684"
         style="fill:#f4a700;fill-opacity:1;fill-rule:nonzero;stroke:none;stroke-width:0.35277778"
         d="m -24.380955,149.27244 h -0.524931 v -8.43774 h 0.524931 z" />
    </g>
  </g>
</svg>
