<?xml version="1.0" encoding="UTF-8"?>
<svg xmlns="http://www.w3.org/2000/svg" viewBox="0 0 202.119 36.773" width="202.119" height="36.773">
  <g class="logo-fallback" fill="currentColor">
    <path d="M13.687.773h-1.401v36h1.4v-36z"/>
    <path d="M1.078.773H.372v36h.706v-36z"/>
    <path d="M27.707.773h-2.801v36h2.801v-36z"/>
    <path d="M61.73 26.013L45.66.773h-6.733v36h5.615v-26.57l17.129 26.57h5.662v-36H61.73v25.24z"/>
    <path d="M89.9.267c-10.5 0-17.187 7.652-17.187 18.565s6.675 18.46 17.188 18.46c10.513 0 17.188-7.653 17.188-18.566S100.414.267 89.9.267zm0 32.02c-7.651 0-11.418-5.709-11.418-13.56C78.482 10.98 82.26 5.27 89.9 5.27c7.593 0 11.419 5.604 11.419 13.456.012 8.052-3.814 13.562-11.42 13.562z"/>
    <path d="M118.084 20.657h17.188v-5.05h-17.188V5.823h19.024V.774h-24.627v36h25.287v-5.051h-19.684V20.657z"/>
    <path d="M169.742 11.38c0-6.428-3.98-10.607-12.691-10.607h-12.797v36h5.604V22.034h7.134l7.393 14.74h6.475l-8.158-15.811c4.391-1.53 7.04-4.744 7.04-9.583zm-12.597 5.604h-7.287V5.812h7.346c4.838 0 6.828 1.79 6.828 5.556 0 3.473-2.296 5.616-6.887 5.616z"/>
    <path d="M195.079 20.963c4.38-1.53 7.04-4.744 7.04-9.583 0-6.428-3.98-10.607-12.69-10.607h-12.797v36h5.604V22.034h7.134l7.393 14.74h6.475l-8.159-15.811zm-5.556-3.98h-7.287V5.813h7.346c4.838 0 6.828 1.79 6.828 5.556-.012 3.473-2.308 5.616-6.887 5.616z"/>
  </g>
</svg>