<?xml version="1.0" encoding="utf-8"?><svg xmlns="http://www.w3.org/2000/svg" xmlns:xlink="http://www.w3.org/1999/xlink" viewBox="0 0 140.83 43.57"><defs><style>.cls-1{fill:none;}.cls-2{clip-path:url(#clip-path);}.cls-3{fill:#245ba7;}.cls-4{fill:#b7b8b9;}</style><clipPath id="clip-path" transform="translate(0 0)"><rect class="cls-1" width="140.83" height="43.57"/></clipPath></defs><g id="Ebene_2" data-name="Ebene 2"><g id="Ebene_1-2" data-name="Ebene 1"><g class="cls-2"><path class="cls-3" d="M122.81,30.2h2.91V12.53a12.74,12.74,0,0,1,1.94-.35,28.09,28.09,0,0,1,3.56-.19,10.35,10.35,0,0,1,3.19.41,4.39,4.39,0,0,1,2.06,1.34,5.55,5.55,0,0,1,1.11,2.41,16.24,16.24,0,0,1,.34,3.62V30.2h2.9V19a15.3,15.3,0,0,0-.44-3.77,7.33,7.33,0,0,0-1.5-2.94,6.69,6.69,0,0,0-2.82-1.89,12.63,12.63,0,0,0-4.4-.66,31.23,31.23,0,0,0-5.36.39c-1.46.26-2.62.49-3.49.7ZM110.08,10.14A25,25,0,0,0,107,11V30.2h2.91V12.57a10.07,10.07,0,0,1,1.49-.39,16.18,16.18,0,0,1,3-.23,20,20,0,0,1,2.88.17,8,8,0,0,1,1.46.33l.58-2.18a10.27,10.27,0,0,0-1.77-.39,19.28,19.28,0,0,0-2.7-.19,21.73,21.73,0,0,0-4.78.45m-13.59,16a7.81,7.81,0,0,1-10.91,0,8.58,8.58,0,0,1-2-6,8.65,8.65,0,0,1,2-6,7.76,7.76,0,0,1,10.91,0,8.65,8.65,0,0,1,2,6,8.58,8.58,0,0,1-2,6m4.31-10.31a9.56,9.56,0,0,0-2.19-3.33,10,10,0,0,0-3.33-2.14,12.24,12.24,0,0,0-8.49,0,10,10,0,0,0-3.33,2.14,9.56,9.56,0,0,0-2.19,3.33,11.53,11.53,0,0,0-.78,4.32,11.53,11.53,0,0,0,.78,4.32,9.39,9.39,0,0,0,2.19,3.31,10.08,10.08,0,0,0,3.33,2.12,12.24,12.24,0,0,0,8.49,0,10.08,10.08,0,0,0,3.33-2.12,9.39,9.39,0,0,0,2.19-3.31,11.53,11.53,0,0,0,.78-4.32,11.53,11.53,0,0,0-.78-4.32M60.24,30.2V12.88a6.35,6.35,0,0,1,.79-.23c.4-.11.85-.2,1.36-.29s1-.18,1.63-.26A13.79,13.79,0,0,1,65.65,12a10.86,10.86,0,0,1,3.27.41A4.32,4.32,0,0,1,71,13.74a5.56,5.56,0,0,1,1.12,2.41,16.86,16.86,0,0,1,.34,3.62V30.2h2.9V19a15.82,15.82,0,0,0-.42-3.77,7.08,7.08,0,0,0-1.5-2.94,6.9,6.9,0,0,0-2.86-1.89,13,13,0,0,0-4.47-.66,17.28,17.28,0,0,0-2.95.25,21.32,21.32,0,0,0-2.91.72V0l-2.9.47V30.2ZM43.66,3.7l-2.9.46V22.69a14.89,14.89,0,0,0,.36,3.5,5.49,5.49,0,0,0,1.23,2.47,5.17,5.17,0,0,0,2.32,1.48,11.3,11.3,0,0,0,3.6.49,12.19,12.19,0,0,0,3.39-.45,10.69,10.69,0,0,0,2.19-.8l-.71-2.1A13,13,0,0,1,51.4,28a9.55,9.55,0,0,1-2.95.37,9.28,9.28,0,0,1-2-.19A3.16,3.16,0,0,1,45,27.36a3.67,3.67,0,0,1-1-1.66,9.6,9.6,0,0,1-.34-2.78V12.22h9.21V10.08H43.66ZM30.44,26.15A7,7,0,0,1,25,28.37a7,7,0,0,1-5.45-2.22,8.58,8.58,0,0,1-2-6,8.65,8.65,0,0,1,2-6A6.94,6.94,0,0,1,25,11.91a7,7,0,0,1,5.46,2.24,8.65,8.65,0,0,1,2,6,8.58,8.58,0,0,1-2,6m4.31-10.31a9.56,9.56,0,0,0-2.19-3.33,10,10,0,0,0-3.33-2.14,12.24,12.24,0,0,0-8.49,0,10,10,0,0,0-3.33,2.14,9.56,9.56,0,0,0-2.19,3.33,11.53,11.53,0,0,0-.78,4.32,11.53,11.53,0,0,0,.78,4.32,9.39,9.39,0,0,0,2.19,3.31,10.08,10.08,0,0,0,3.33,2.12,12.24,12.24,0,0,0,8.49,0,10.08,10.08,0,0,0,3.33-2.12,9.39,9.39,0,0,0,2.19-3.31,11.53,11.53,0,0,0,.78-4.32,11.53,11.53,0,0,0-.78-4.32M3.08,10.14A24.76,24.76,0,0,0,0,11V30.2H2.91V12.57a9.71,9.71,0,0,1,1.49-.39,16.18,16.18,0,0,1,3-.23,20,20,0,0,1,2.88.17,7.58,7.58,0,0,1,1.45.33l.59-2.18a10.27,10.27,0,0,0-1.77-.39,19.28,19.28,0,0,0-2.7-.19,21.83,21.83,0,0,0-4.79.45" transform="translate(0 0)"/><path class="cls-4" d="M140.25,41.22h.58V31.9h-.58Zm-7.43-.39a2,2,0,0,1-1-.27,2.1,2.1,0,0,1-.73-.75,2,2,0,0,1-.27-1,2.17,2.17,0,0,1,.26-1.07,2,2,0,0,1,.72-.71,2.13,2.13,0,0,1,1-.25,2.09,2.09,0,0,1,2,1.58V39a1.85,1.85,0,0,1-.62,1.29,2,2,0,0,1-1.37.5m2.05-4.4-.06,1a2.28,2.28,0,0,0-.83-.86,2.11,2.11,0,0,0-1.12-.33,2.86,2.86,0,0,0-1.35.31,2.29,2.29,0,0,0-.93.87,2.69,2.69,0,0,0-.34,1.36,2.58,2.58,0,0,0,.33,1.31,2.32,2.32,0,0,0,.88.88,2.49,2.49,0,0,0,1.25.31A2.58,2.58,0,0,0,134,41a2.36,2.36,0,0,0,.86-.79v1h.57V36.43Zm-11.63,4.4a2,2,0,0,1-1-.27,2.13,2.13,0,0,1-.74-.75,2.1,2.1,0,0,1,0-2.06,1.81,1.81,0,0,1,.73-.72,2.1,2.1,0,0,1,1-.26,2,2,0,0,1,1.3.45,1.93,1.93,0,0,1,.72,1.15v.71a1.68,1.68,0,0,1-.32.87,2,2,0,0,1-.73.64,2,2,0,0,1-1,.24m2.08-4.4,0,1a2.06,2.06,0,0,0-.85-.83,2.62,2.62,0,0,0-2.51,0,2.37,2.37,0,0,0-.93.9,2.47,2.47,0,0,0-.34,1.3,2.51,2.51,0,0,0,.33,1.27,2.43,2.43,0,0,0,.89.91,2.36,2.36,0,0,0,1.23.33,2.52,2.52,0,0,0,1.27-.32,2.28,2.28,0,0,0,.9-.84v1.13a1.81,1.81,0,0,1-.5,1.28,2.1,2.1,0,0,1-1.54.48,2.33,2.33,0,0,1-.92-.19,3.24,3.24,0,0,1-.94-.67l-.34.4a3.52,3.52,0,0,0,1.08.75,2.88,2.88,0,0,0,1.15.23,2.64,2.64,0,0,0,2-.65,2.2,2.2,0,0,0,.65-1.62V36.43Zm-10.82.33a1.62,1.62,0,0,1,1,.3,1.94,1.94,0,0,1,.65.79l-3.53,1.39a2.13,2.13,0,0,1,.21-1.48,1.91,1.91,0,0,1,.71-.73,1.89,1.89,0,0,1,1-.27m0,4.06a2,2,0,0,1-1.1-.32,1.9,1.9,0,0,1-.71-.83l4.09-1.59a2.77,2.77,0,0,0-.86-1.32,2.11,2.11,0,0,0-1.42-.49,2.51,2.51,0,0,0-1.29.34,2.59,2.59,0,0,0-.93.93,2.44,2.44,0,0,0-.34,1.27,2.61,2.61,0,0,0,.32,1.28,2.38,2.38,0,0,0,.91.9,2.64,2.64,0,0,0,1.32.33,2.59,2.59,0,0,0,.9-.16,2.72,2.72,0,0,0,.8-.45l-.29-.42a2.13,2.13,0,0,1-1.4.53m-7.54.4h.57V31.9H107Z" transform="translate(0 0)"/></g></g></g></svg>